<mxfile host="app.diagrams.net" modified="2024-03-09T12:16:50.968Z" agent="Mozilla/5.0 (Windows NT 10.0; Win64; x64) AppleWebKit/537.36 (KHTML, like Gecko) Chrome/122.0.0.0 Safari/537.36 Edg/122.0.0.0" etag="H2Rcbd9SnOcP3PGbB3hd" version="24.0.3" type="github">
  <diagram name="PÃ¡gina-1" id="9BydtUkvyBxx8C_bxIg8">
    <mxGraphModel dx="1109" dy="631" grid="1" gridSize="10" guides="1" tooltips="1" connect="1" arrows="1" fold="1" page="1" pageScale="1" pageWidth="827" pageHeight="1169" math="0" shadow="0">
      <root>
        <mxCell id="0" />
        <mxCell id="1" parent="0" />
        <mxCell id="zV5-nlUjaIhCNrpp0IqO-1" value="" style="shape=table;startSize=0;container=1;collapsible=0;childLayout=tableLayout;fontSize=16;" vertex="1" parent="1">
          <mxGeometry x="120" y="60" width="1077" height="937" as="geometry" />
        </mxCell>
        <mxCell id="zV5-nlUjaIhCNrpp0IqO-47" style="shape=tableRow;horizontal=0;startSize=0;swimlaneHead=0;swimlaneBody=0;strokeColor=inherit;top=0;left=0;bottom=0;right=0;collapsible=0;dropTarget=0;fillColor=none;points=[[0,0.5],[1,0.5]];portConstraint=eastwest;fontSize=16;" vertex="1" parent="zV5-nlUjaIhCNrpp0IqO-1">
          <mxGeometry width="1077" height="67" as="geometry" />
        </mxCell>
        <mxCell id="zV5-nlUjaIhCNrpp0IqO-48" style="shape=partialRectangle;html=1;whiteSpace=wrap;connectable=0;strokeColor=inherit;overflow=hidden;fillColor=none;top=0;left=0;bottom=0;right=0;pointerEvents=1;fontSize=16;" vertex="1" parent="zV5-nlUjaIhCNrpp0IqO-47">
          <mxGeometry width="77" height="67" as="geometry">
            <mxRectangle width="77" height="67" as="alternateBounds" />
          </mxGeometry>
        </mxCell>
        <mxCell id="zV5-nlUjaIhCNrpp0IqO-49" style="shape=partialRectangle;html=1;whiteSpace=wrap;connectable=0;strokeColor=inherit;overflow=hidden;fillColor=none;top=0;left=0;bottom=0;right=0;pointerEvents=1;fontSize=16;" vertex="1" parent="zV5-nlUjaIhCNrpp0IqO-47">
          <mxGeometry x="77" width="77" height="67" as="geometry">
            <mxRectangle width="77" height="67" as="alternateBounds" />
          </mxGeometry>
        </mxCell>
        <mxCell id="zV5-nlUjaIhCNrpp0IqO-50" style="shape=partialRectangle;html=1;whiteSpace=wrap;connectable=0;strokeColor=inherit;overflow=hidden;fillColor=none;top=0;left=0;bottom=0;right=0;pointerEvents=1;fontSize=16;" vertex="1" parent="zV5-nlUjaIhCNrpp0IqO-47">
          <mxGeometry x="154" width="77" height="67" as="geometry">
            <mxRectangle width="77" height="67" as="alternateBounds" />
          </mxGeometry>
        </mxCell>
        <mxCell id="zV5-nlUjaIhCNrpp0IqO-51" style="shape=partialRectangle;html=1;whiteSpace=wrap;connectable=0;strokeColor=inherit;overflow=hidden;fillColor=none;top=0;left=0;bottom=0;right=0;pointerEvents=1;fontSize=16;" vertex="1" parent="zV5-nlUjaIhCNrpp0IqO-47">
          <mxGeometry x="231" width="77" height="67" as="geometry">
            <mxRectangle width="77" height="67" as="alternateBounds" />
          </mxGeometry>
        </mxCell>
        <mxCell id="zV5-nlUjaIhCNrpp0IqO-52" style="shape=partialRectangle;html=1;whiteSpace=wrap;connectable=0;strokeColor=inherit;overflow=hidden;fillColor=none;top=0;left=0;bottom=0;right=0;pointerEvents=1;fontSize=16;" vertex="1" parent="zV5-nlUjaIhCNrpp0IqO-47">
          <mxGeometry x="308" width="77" height="67" as="geometry">
            <mxRectangle width="77" height="67" as="alternateBounds" />
          </mxGeometry>
        </mxCell>
        <mxCell id="zV5-nlUjaIhCNrpp0IqO-53" style="shape=partialRectangle;html=1;whiteSpace=wrap;connectable=0;strokeColor=inherit;overflow=hidden;fillColor=none;top=0;left=0;bottom=0;right=0;pointerEvents=1;fontSize=16;" vertex="1" parent="zV5-nlUjaIhCNrpp0IqO-47">
          <mxGeometry x="385" width="77" height="67" as="geometry">
            <mxRectangle width="77" height="67" as="alternateBounds" />
          </mxGeometry>
        </mxCell>
        <mxCell id="zV5-nlUjaIhCNrpp0IqO-54" style="shape=partialRectangle;html=1;whiteSpace=wrap;connectable=0;strokeColor=inherit;overflow=hidden;fillColor=none;top=0;left=0;bottom=0;right=0;pointerEvents=1;fontSize=16;" vertex="1" parent="zV5-nlUjaIhCNrpp0IqO-47">
          <mxGeometry x="462" width="77" height="67" as="geometry">
            <mxRectangle width="77" height="67" as="alternateBounds" />
          </mxGeometry>
        </mxCell>
        <mxCell id="zV5-nlUjaIhCNrpp0IqO-55" style="shape=partialRectangle;html=1;whiteSpace=wrap;connectable=0;strokeColor=inherit;overflow=hidden;fillColor=none;top=0;left=0;bottom=0;right=0;pointerEvents=1;fontSize=16;" vertex="1" parent="zV5-nlUjaIhCNrpp0IqO-47">
          <mxGeometry x="539" width="77" height="67" as="geometry">
            <mxRectangle width="77" height="67" as="alternateBounds" />
          </mxGeometry>
        </mxCell>
        <mxCell id="zV5-nlUjaIhCNrpp0IqO-56" style="shape=partialRectangle;html=1;whiteSpace=wrap;connectable=0;strokeColor=inherit;overflow=hidden;fillColor=none;top=0;left=0;bottom=0;right=0;pointerEvents=1;fontSize=16;" vertex="1" parent="zV5-nlUjaIhCNrpp0IqO-47">
          <mxGeometry x="616" width="77" height="67" as="geometry">
            <mxRectangle width="77" height="67" as="alternateBounds" />
          </mxGeometry>
        </mxCell>
        <mxCell id="zV5-nlUjaIhCNrpp0IqO-57" style="shape=partialRectangle;html=1;whiteSpace=wrap;connectable=0;strokeColor=inherit;overflow=hidden;fillColor=none;top=0;left=0;bottom=0;right=0;pointerEvents=1;fontSize=16;" vertex="1" parent="zV5-nlUjaIhCNrpp0IqO-47">
          <mxGeometry x="693" width="77" height="67" as="geometry">
            <mxRectangle width="77" height="67" as="alternateBounds" />
          </mxGeometry>
        </mxCell>
        <mxCell id="zV5-nlUjaIhCNrpp0IqO-58" style="shape=partialRectangle;html=1;whiteSpace=wrap;connectable=0;strokeColor=inherit;overflow=hidden;fillColor=none;top=0;left=0;bottom=0;right=0;pointerEvents=1;fontSize=16;" vertex="1" parent="zV5-nlUjaIhCNrpp0IqO-47">
          <mxGeometry x="770" width="77" height="67" as="geometry">
            <mxRectangle width="77" height="67" as="alternateBounds" />
          </mxGeometry>
        </mxCell>
        <mxCell id="zV5-nlUjaIhCNrpp0IqO-59" style="shape=partialRectangle;html=1;whiteSpace=wrap;connectable=0;strokeColor=inherit;overflow=hidden;fillColor=none;top=0;left=0;bottom=0;right=0;pointerEvents=1;fontSize=16;" vertex="1" parent="zV5-nlUjaIhCNrpp0IqO-47">
          <mxGeometry x="847" width="77" height="67" as="geometry">
            <mxRectangle width="77" height="67" as="alternateBounds" />
          </mxGeometry>
        </mxCell>
        <mxCell id="zV5-nlUjaIhCNrpp0IqO-60" style="shape=partialRectangle;html=1;whiteSpace=wrap;connectable=0;strokeColor=inherit;overflow=hidden;fillColor=none;top=0;left=0;bottom=0;right=0;pointerEvents=1;fontSize=16;" vertex="1" parent="zV5-nlUjaIhCNrpp0IqO-47">
          <mxGeometry x="924" width="76" height="67" as="geometry">
            <mxRectangle width="76" height="67" as="alternateBounds" />
          </mxGeometry>
        </mxCell>
        <mxCell id="zV5-nlUjaIhCNrpp0IqO-61" style="shape=partialRectangle;html=1;whiteSpace=wrap;connectable=0;strokeColor=inherit;overflow=hidden;fillColor=none;top=0;left=0;bottom=0;right=0;pointerEvents=1;fontSize=16;" vertex="1" parent="zV5-nlUjaIhCNrpp0IqO-47">
          <mxGeometry x="1000" width="77" height="67" as="geometry">
            <mxRectangle width="77" height="67" as="alternateBounds" />
          </mxGeometry>
        </mxCell>
        <mxCell id="zV5-nlUjaIhCNrpp0IqO-62" style="shape=tableRow;horizontal=0;startSize=0;swimlaneHead=0;swimlaneBody=0;strokeColor=inherit;top=0;left=0;bottom=0;right=0;collapsible=0;dropTarget=0;fillColor=none;points=[[0,0.5],[1,0.5]];portConstraint=eastwest;fontSize=16;" vertex="1" parent="zV5-nlUjaIhCNrpp0IqO-1">
          <mxGeometry y="67" width="1077" height="67" as="geometry" />
        </mxCell>
        <mxCell id="zV5-nlUjaIhCNrpp0IqO-63" style="shape=partialRectangle;html=1;whiteSpace=wrap;connectable=0;strokeColor=inherit;overflow=hidden;fillColor=none;top=0;left=0;bottom=0;right=0;pointerEvents=1;fontSize=16;" vertex="1" parent="zV5-nlUjaIhCNrpp0IqO-62">
          <mxGeometry width="77" height="67" as="geometry">
            <mxRectangle width="77" height="67" as="alternateBounds" />
          </mxGeometry>
        </mxCell>
        <mxCell id="zV5-nlUjaIhCNrpp0IqO-64" style="shape=partialRectangle;html=1;whiteSpace=wrap;connectable=0;strokeColor=inherit;overflow=hidden;fillColor=none;top=0;left=0;bottom=0;right=0;pointerEvents=1;fontSize=16;" vertex="1" parent="zV5-nlUjaIhCNrpp0IqO-62">
          <mxGeometry x="77" width="77" height="67" as="geometry">
            <mxRectangle width="77" height="67" as="alternateBounds" />
          </mxGeometry>
        </mxCell>
        <mxCell id="zV5-nlUjaIhCNrpp0IqO-65" style="shape=partialRectangle;html=1;whiteSpace=wrap;connectable=0;strokeColor=inherit;overflow=hidden;fillColor=none;top=0;left=0;bottom=0;right=0;pointerEvents=1;fontSize=16;" vertex="1" parent="zV5-nlUjaIhCNrpp0IqO-62">
          <mxGeometry x="154" width="77" height="67" as="geometry">
            <mxRectangle width="77" height="67" as="alternateBounds" />
          </mxGeometry>
        </mxCell>
        <mxCell id="zV5-nlUjaIhCNrpp0IqO-66" style="shape=partialRectangle;html=1;whiteSpace=wrap;connectable=0;strokeColor=inherit;overflow=hidden;fillColor=none;top=0;left=0;bottom=0;right=0;pointerEvents=1;fontSize=16;" vertex="1" parent="zV5-nlUjaIhCNrpp0IqO-62">
          <mxGeometry x="231" width="77" height="67" as="geometry">
            <mxRectangle width="77" height="67" as="alternateBounds" />
          </mxGeometry>
        </mxCell>
        <mxCell id="zV5-nlUjaIhCNrpp0IqO-67" style="shape=partialRectangle;html=1;whiteSpace=wrap;connectable=0;strokeColor=inherit;overflow=hidden;fillColor=none;top=0;left=0;bottom=0;right=0;pointerEvents=1;fontSize=16;" vertex="1" parent="zV5-nlUjaIhCNrpp0IqO-62">
          <mxGeometry x="308" width="77" height="67" as="geometry">
            <mxRectangle width="77" height="67" as="alternateBounds" />
          </mxGeometry>
        </mxCell>
        <mxCell id="zV5-nlUjaIhCNrpp0IqO-68" style="shape=partialRectangle;html=1;whiteSpace=wrap;connectable=0;strokeColor=inherit;overflow=hidden;fillColor=none;top=0;left=0;bottom=0;right=0;pointerEvents=1;fontSize=16;" vertex="1" parent="zV5-nlUjaIhCNrpp0IqO-62">
          <mxGeometry x="385" width="77" height="67" as="geometry">
            <mxRectangle width="77" height="67" as="alternateBounds" />
          </mxGeometry>
        </mxCell>
        <mxCell id="zV5-nlUjaIhCNrpp0IqO-69" style="shape=partialRectangle;html=1;whiteSpace=wrap;connectable=0;strokeColor=inherit;overflow=hidden;fillColor=none;top=0;left=0;bottom=0;right=0;pointerEvents=1;fontSize=16;" vertex="1" parent="zV5-nlUjaIhCNrpp0IqO-62">
          <mxGeometry x="462" width="77" height="67" as="geometry">
            <mxRectangle width="77" height="67" as="alternateBounds" />
          </mxGeometry>
        </mxCell>
        <mxCell id="zV5-nlUjaIhCNrpp0IqO-70" style="shape=partialRectangle;html=1;whiteSpace=wrap;connectable=0;strokeColor=inherit;overflow=hidden;fillColor=none;top=0;left=0;bottom=0;right=0;pointerEvents=1;fontSize=16;" vertex="1" parent="zV5-nlUjaIhCNrpp0IqO-62">
          <mxGeometry x="539" width="77" height="67" as="geometry">
            <mxRectangle width="77" height="67" as="alternateBounds" />
          </mxGeometry>
        </mxCell>
        <mxCell id="zV5-nlUjaIhCNrpp0IqO-71" style="shape=partialRectangle;html=1;whiteSpace=wrap;connectable=0;strokeColor=inherit;overflow=hidden;fillColor=none;top=0;left=0;bottom=0;right=0;pointerEvents=1;fontSize=16;" vertex="1" parent="zV5-nlUjaIhCNrpp0IqO-62">
          <mxGeometry x="616" width="77" height="67" as="geometry">
            <mxRectangle width="77" height="67" as="alternateBounds" />
          </mxGeometry>
        </mxCell>
        <mxCell id="zV5-nlUjaIhCNrpp0IqO-72" style="shape=partialRectangle;html=1;whiteSpace=wrap;connectable=0;strokeColor=inherit;overflow=hidden;fillColor=none;top=0;left=0;bottom=0;right=0;pointerEvents=1;fontSize=16;" vertex="1" parent="zV5-nlUjaIhCNrpp0IqO-62">
          <mxGeometry x="693" width="77" height="67" as="geometry">
            <mxRectangle width="77" height="67" as="alternateBounds" />
          </mxGeometry>
        </mxCell>
        <mxCell id="zV5-nlUjaIhCNrpp0IqO-73" style="shape=partialRectangle;html=1;whiteSpace=wrap;connectable=0;strokeColor=inherit;overflow=hidden;fillColor=none;top=0;left=0;bottom=0;right=0;pointerEvents=1;fontSize=16;" vertex="1" parent="zV5-nlUjaIhCNrpp0IqO-62">
          <mxGeometry x="770" width="77" height="67" as="geometry">
            <mxRectangle width="77" height="67" as="alternateBounds" />
          </mxGeometry>
        </mxCell>
        <mxCell id="zV5-nlUjaIhCNrpp0IqO-74" style="shape=partialRectangle;html=1;whiteSpace=wrap;connectable=0;strokeColor=inherit;overflow=hidden;fillColor=none;top=0;left=0;bottom=0;right=0;pointerEvents=1;fontSize=16;" vertex="1" parent="zV5-nlUjaIhCNrpp0IqO-62">
          <mxGeometry x="847" width="77" height="67" as="geometry">
            <mxRectangle width="77" height="67" as="alternateBounds" />
          </mxGeometry>
        </mxCell>
        <mxCell id="zV5-nlUjaIhCNrpp0IqO-75" style="shape=partialRectangle;html=1;whiteSpace=wrap;connectable=0;strokeColor=inherit;overflow=hidden;fillColor=none;top=0;left=0;bottom=0;right=0;pointerEvents=1;fontSize=16;" vertex="1" parent="zV5-nlUjaIhCNrpp0IqO-62">
          <mxGeometry x="924" width="76" height="67" as="geometry">
            <mxRectangle width="76" height="67" as="alternateBounds" />
          </mxGeometry>
        </mxCell>
        <mxCell id="zV5-nlUjaIhCNrpp0IqO-76" style="shape=partialRectangle;html=1;whiteSpace=wrap;connectable=0;strokeColor=inherit;overflow=hidden;fillColor=none;top=0;left=0;bottom=0;right=0;pointerEvents=1;fontSize=16;" vertex="1" parent="zV5-nlUjaIhCNrpp0IqO-62">
          <mxGeometry x="1000" width="77" height="67" as="geometry">
            <mxRectangle width="77" height="67" as="alternateBounds" />
          </mxGeometry>
        </mxCell>
        <mxCell id="zV5-nlUjaIhCNrpp0IqO-77" style="shape=tableRow;horizontal=0;startSize=0;swimlaneHead=0;swimlaneBody=0;strokeColor=inherit;top=0;left=0;bottom=0;right=0;collapsible=0;dropTarget=0;fillColor=none;points=[[0,0.5],[1,0.5]];portConstraint=eastwest;fontSize=16;" vertex="1" parent="zV5-nlUjaIhCNrpp0IqO-1">
          <mxGeometry y="134" width="1077" height="67" as="geometry" />
        </mxCell>
        <mxCell id="zV5-nlUjaIhCNrpp0IqO-78" style="shape=partialRectangle;html=1;whiteSpace=wrap;connectable=0;strokeColor=inherit;overflow=hidden;fillColor=none;top=0;left=0;bottom=0;right=0;pointerEvents=1;fontSize=16;" vertex="1" parent="zV5-nlUjaIhCNrpp0IqO-77">
          <mxGeometry width="77" height="67" as="geometry">
            <mxRectangle width="77" height="67" as="alternateBounds" />
          </mxGeometry>
        </mxCell>
        <mxCell id="zV5-nlUjaIhCNrpp0IqO-79" style="shape=partialRectangle;html=1;whiteSpace=wrap;connectable=0;strokeColor=inherit;overflow=hidden;fillColor=none;top=0;left=0;bottom=0;right=0;pointerEvents=1;fontSize=16;" vertex="1" parent="zV5-nlUjaIhCNrpp0IqO-77">
          <mxGeometry x="77" width="77" height="67" as="geometry">
            <mxRectangle width="77" height="67" as="alternateBounds" />
          </mxGeometry>
        </mxCell>
        <mxCell id="zV5-nlUjaIhCNrpp0IqO-80" style="shape=partialRectangle;html=1;whiteSpace=wrap;connectable=0;strokeColor=inherit;overflow=hidden;fillColor=none;top=0;left=0;bottom=0;right=0;pointerEvents=1;fontSize=16;" vertex="1" parent="zV5-nlUjaIhCNrpp0IqO-77">
          <mxGeometry x="154" width="77" height="67" as="geometry">
            <mxRectangle width="77" height="67" as="alternateBounds" />
          </mxGeometry>
        </mxCell>
        <mxCell id="zV5-nlUjaIhCNrpp0IqO-81" style="shape=partialRectangle;html=1;whiteSpace=wrap;connectable=0;strokeColor=inherit;overflow=hidden;fillColor=none;top=0;left=0;bottom=0;right=0;pointerEvents=1;fontSize=16;" vertex="1" parent="zV5-nlUjaIhCNrpp0IqO-77">
          <mxGeometry x="231" width="77" height="67" as="geometry">
            <mxRectangle width="77" height="67" as="alternateBounds" />
          </mxGeometry>
        </mxCell>
        <mxCell id="zV5-nlUjaIhCNrpp0IqO-82" style="shape=partialRectangle;html=1;whiteSpace=wrap;connectable=0;strokeColor=inherit;overflow=hidden;fillColor=none;top=0;left=0;bottom=0;right=0;pointerEvents=1;fontSize=16;" vertex="1" parent="zV5-nlUjaIhCNrpp0IqO-77">
          <mxGeometry x="308" width="77" height="67" as="geometry">
            <mxRectangle width="77" height="67" as="alternateBounds" />
          </mxGeometry>
        </mxCell>
        <mxCell id="zV5-nlUjaIhCNrpp0IqO-83" style="shape=partialRectangle;html=1;whiteSpace=wrap;connectable=0;strokeColor=inherit;overflow=hidden;fillColor=none;top=0;left=0;bottom=0;right=0;pointerEvents=1;fontSize=16;" vertex="1" parent="zV5-nlUjaIhCNrpp0IqO-77">
          <mxGeometry x="385" width="77" height="67" as="geometry">
            <mxRectangle width="77" height="67" as="alternateBounds" />
          </mxGeometry>
        </mxCell>
        <mxCell id="zV5-nlUjaIhCNrpp0IqO-84" style="shape=partialRectangle;html=1;whiteSpace=wrap;connectable=0;strokeColor=inherit;overflow=hidden;fillColor=none;top=0;left=0;bottom=0;right=0;pointerEvents=1;fontSize=16;" vertex="1" parent="zV5-nlUjaIhCNrpp0IqO-77">
          <mxGeometry x="462" width="77" height="67" as="geometry">
            <mxRectangle width="77" height="67" as="alternateBounds" />
          </mxGeometry>
        </mxCell>
        <mxCell id="zV5-nlUjaIhCNrpp0IqO-85" style="shape=partialRectangle;html=1;whiteSpace=wrap;connectable=0;strokeColor=inherit;overflow=hidden;fillColor=none;top=0;left=0;bottom=0;right=0;pointerEvents=1;fontSize=16;" vertex="1" parent="zV5-nlUjaIhCNrpp0IqO-77">
          <mxGeometry x="539" width="77" height="67" as="geometry">
            <mxRectangle width="77" height="67" as="alternateBounds" />
          </mxGeometry>
        </mxCell>
        <mxCell id="zV5-nlUjaIhCNrpp0IqO-86" style="shape=partialRectangle;html=1;whiteSpace=wrap;connectable=0;strokeColor=inherit;overflow=hidden;fillColor=none;top=0;left=0;bottom=0;right=0;pointerEvents=1;fontSize=16;" vertex="1" parent="zV5-nlUjaIhCNrpp0IqO-77">
          <mxGeometry x="616" width="77" height="67" as="geometry">
            <mxRectangle width="77" height="67" as="alternateBounds" />
          </mxGeometry>
        </mxCell>
        <mxCell id="zV5-nlUjaIhCNrpp0IqO-87" style="shape=partialRectangle;html=1;whiteSpace=wrap;connectable=0;strokeColor=inherit;overflow=hidden;fillColor=none;top=0;left=0;bottom=0;right=0;pointerEvents=1;fontSize=16;" vertex="1" parent="zV5-nlUjaIhCNrpp0IqO-77">
          <mxGeometry x="693" width="77" height="67" as="geometry">
            <mxRectangle width="77" height="67" as="alternateBounds" />
          </mxGeometry>
        </mxCell>
        <mxCell id="zV5-nlUjaIhCNrpp0IqO-88" style="shape=partialRectangle;html=1;whiteSpace=wrap;connectable=0;strokeColor=inherit;overflow=hidden;fillColor=none;top=0;left=0;bottom=0;right=0;pointerEvents=1;fontSize=16;" vertex="1" parent="zV5-nlUjaIhCNrpp0IqO-77">
          <mxGeometry x="770" width="77" height="67" as="geometry">
            <mxRectangle width="77" height="67" as="alternateBounds" />
          </mxGeometry>
        </mxCell>
        <mxCell id="zV5-nlUjaIhCNrpp0IqO-89" style="shape=partialRectangle;html=1;whiteSpace=wrap;connectable=0;strokeColor=inherit;overflow=hidden;fillColor=none;top=0;left=0;bottom=0;right=0;pointerEvents=1;fontSize=16;" vertex="1" parent="zV5-nlUjaIhCNrpp0IqO-77">
          <mxGeometry x="847" width="77" height="67" as="geometry">
            <mxRectangle width="77" height="67" as="alternateBounds" />
          </mxGeometry>
        </mxCell>
        <mxCell id="zV5-nlUjaIhCNrpp0IqO-90" style="shape=partialRectangle;html=1;whiteSpace=wrap;connectable=0;strokeColor=inherit;overflow=hidden;fillColor=none;top=0;left=0;bottom=0;right=0;pointerEvents=1;fontSize=16;" vertex="1" parent="zV5-nlUjaIhCNrpp0IqO-77">
          <mxGeometry x="924" width="76" height="67" as="geometry">
            <mxRectangle width="76" height="67" as="alternateBounds" />
          </mxGeometry>
        </mxCell>
        <mxCell id="zV5-nlUjaIhCNrpp0IqO-91" style="shape=partialRectangle;html=1;whiteSpace=wrap;connectable=0;strokeColor=inherit;overflow=hidden;fillColor=none;top=0;left=0;bottom=0;right=0;pointerEvents=1;fontSize=16;" vertex="1" parent="zV5-nlUjaIhCNrpp0IqO-77">
          <mxGeometry x="1000" width="77" height="67" as="geometry">
            <mxRectangle width="77" height="67" as="alternateBounds" />
          </mxGeometry>
        </mxCell>
        <mxCell id="zV5-nlUjaIhCNrpp0IqO-92" style="shape=tableRow;horizontal=0;startSize=0;swimlaneHead=0;swimlaneBody=0;strokeColor=inherit;top=0;left=0;bottom=0;right=0;collapsible=0;dropTarget=0;fillColor=none;points=[[0,0.5],[1,0.5]];portConstraint=eastwest;fontSize=16;" vertex="1" parent="zV5-nlUjaIhCNrpp0IqO-1">
          <mxGeometry y="201" width="1077" height="67" as="geometry" />
        </mxCell>
        <mxCell id="zV5-nlUjaIhCNrpp0IqO-93" style="shape=partialRectangle;html=1;whiteSpace=wrap;connectable=0;strokeColor=inherit;overflow=hidden;fillColor=none;top=0;left=0;bottom=0;right=0;pointerEvents=1;fontSize=16;" vertex="1" parent="zV5-nlUjaIhCNrpp0IqO-92">
          <mxGeometry width="77" height="67" as="geometry">
            <mxRectangle width="77" height="67" as="alternateBounds" />
          </mxGeometry>
        </mxCell>
        <mxCell id="zV5-nlUjaIhCNrpp0IqO-94" style="shape=partialRectangle;html=1;whiteSpace=wrap;connectable=0;strokeColor=inherit;overflow=hidden;fillColor=none;top=0;left=0;bottom=0;right=0;pointerEvents=1;fontSize=16;" vertex="1" parent="zV5-nlUjaIhCNrpp0IqO-92">
          <mxGeometry x="77" width="77" height="67" as="geometry">
            <mxRectangle width="77" height="67" as="alternateBounds" />
          </mxGeometry>
        </mxCell>
        <mxCell id="zV5-nlUjaIhCNrpp0IqO-95" style="shape=partialRectangle;html=1;whiteSpace=wrap;connectable=0;strokeColor=inherit;overflow=hidden;fillColor=none;top=0;left=0;bottom=0;right=0;pointerEvents=1;fontSize=16;" vertex="1" parent="zV5-nlUjaIhCNrpp0IqO-92">
          <mxGeometry x="154" width="77" height="67" as="geometry">
            <mxRectangle width="77" height="67" as="alternateBounds" />
          </mxGeometry>
        </mxCell>
        <mxCell id="zV5-nlUjaIhCNrpp0IqO-96" style="shape=partialRectangle;html=1;whiteSpace=wrap;connectable=0;strokeColor=inherit;overflow=hidden;fillColor=none;top=0;left=0;bottom=0;right=0;pointerEvents=1;fontSize=16;" vertex="1" parent="zV5-nlUjaIhCNrpp0IqO-92">
          <mxGeometry x="231" width="77" height="67" as="geometry">
            <mxRectangle width="77" height="67" as="alternateBounds" />
          </mxGeometry>
        </mxCell>
        <mxCell id="zV5-nlUjaIhCNrpp0IqO-97" style="shape=partialRectangle;html=1;whiteSpace=wrap;connectable=0;strokeColor=inherit;overflow=hidden;fillColor=none;top=0;left=0;bottom=0;right=0;pointerEvents=1;fontSize=16;" vertex="1" parent="zV5-nlUjaIhCNrpp0IqO-92">
          <mxGeometry x="308" width="77" height="67" as="geometry">
            <mxRectangle width="77" height="67" as="alternateBounds" />
          </mxGeometry>
        </mxCell>
        <mxCell id="zV5-nlUjaIhCNrpp0IqO-98" style="shape=partialRectangle;html=1;whiteSpace=wrap;connectable=0;strokeColor=inherit;overflow=hidden;fillColor=none;top=0;left=0;bottom=0;right=0;pointerEvents=1;fontSize=16;" vertex="1" parent="zV5-nlUjaIhCNrpp0IqO-92">
          <mxGeometry x="385" width="77" height="67" as="geometry">
            <mxRectangle width="77" height="67" as="alternateBounds" />
          </mxGeometry>
        </mxCell>
        <mxCell id="zV5-nlUjaIhCNrpp0IqO-99" style="shape=partialRectangle;html=1;whiteSpace=wrap;connectable=0;strokeColor=inherit;overflow=hidden;fillColor=none;top=0;left=0;bottom=0;right=0;pointerEvents=1;fontSize=16;" vertex="1" parent="zV5-nlUjaIhCNrpp0IqO-92">
          <mxGeometry x="462" width="77" height="67" as="geometry">
            <mxRectangle width="77" height="67" as="alternateBounds" />
          </mxGeometry>
        </mxCell>
        <mxCell id="zV5-nlUjaIhCNrpp0IqO-100" style="shape=partialRectangle;html=1;whiteSpace=wrap;connectable=0;strokeColor=inherit;overflow=hidden;fillColor=none;top=0;left=0;bottom=0;right=0;pointerEvents=1;fontSize=16;" vertex="1" parent="zV5-nlUjaIhCNrpp0IqO-92">
          <mxGeometry x="539" width="77" height="67" as="geometry">
            <mxRectangle width="77" height="67" as="alternateBounds" />
          </mxGeometry>
        </mxCell>
        <mxCell id="zV5-nlUjaIhCNrpp0IqO-101" style="shape=partialRectangle;html=1;whiteSpace=wrap;connectable=0;strokeColor=inherit;overflow=hidden;fillColor=none;top=0;left=0;bottom=0;right=0;pointerEvents=1;fontSize=16;" vertex="1" parent="zV5-nlUjaIhCNrpp0IqO-92">
          <mxGeometry x="616" width="77" height="67" as="geometry">
            <mxRectangle width="77" height="67" as="alternateBounds" />
          </mxGeometry>
        </mxCell>
        <mxCell id="zV5-nlUjaIhCNrpp0IqO-102" style="shape=partialRectangle;html=1;whiteSpace=wrap;connectable=0;strokeColor=inherit;overflow=hidden;fillColor=none;top=0;left=0;bottom=0;right=0;pointerEvents=1;fontSize=16;" vertex="1" parent="zV5-nlUjaIhCNrpp0IqO-92">
          <mxGeometry x="693" width="77" height="67" as="geometry">
            <mxRectangle width="77" height="67" as="alternateBounds" />
          </mxGeometry>
        </mxCell>
        <mxCell id="zV5-nlUjaIhCNrpp0IqO-103" style="shape=partialRectangle;html=1;whiteSpace=wrap;connectable=0;strokeColor=inherit;overflow=hidden;fillColor=none;top=0;left=0;bottom=0;right=0;pointerEvents=1;fontSize=16;" vertex="1" parent="zV5-nlUjaIhCNrpp0IqO-92">
          <mxGeometry x="770" width="77" height="67" as="geometry">
            <mxRectangle width="77" height="67" as="alternateBounds" />
          </mxGeometry>
        </mxCell>
        <mxCell id="zV5-nlUjaIhCNrpp0IqO-104" style="shape=partialRectangle;html=1;whiteSpace=wrap;connectable=0;strokeColor=inherit;overflow=hidden;fillColor=none;top=0;left=0;bottom=0;right=0;pointerEvents=1;fontSize=16;" vertex="1" parent="zV5-nlUjaIhCNrpp0IqO-92">
          <mxGeometry x="847" width="77" height="67" as="geometry">
            <mxRectangle width="77" height="67" as="alternateBounds" />
          </mxGeometry>
        </mxCell>
        <mxCell id="zV5-nlUjaIhCNrpp0IqO-105" style="shape=partialRectangle;html=1;whiteSpace=wrap;connectable=0;strokeColor=inherit;overflow=hidden;fillColor=none;top=0;left=0;bottom=0;right=0;pointerEvents=1;fontSize=16;" vertex="1" parent="zV5-nlUjaIhCNrpp0IqO-92">
          <mxGeometry x="924" width="76" height="67" as="geometry">
            <mxRectangle width="76" height="67" as="alternateBounds" />
          </mxGeometry>
        </mxCell>
        <mxCell id="zV5-nlUjaIhCNrpp0IqO-106" style="shape=partialRectangle;html=1;whiteSpace=wrap;connectable=0;strokeColor=inherit;overflow=hidden;fillColor=none;top=0;left=0;bottom=0;right=0;pointerEvents=1;fontSize=16;" vertex="1" parent="zV5-nlUjaIhCNrpp0IqO-92">
          <mxGeometry x="1000" width="77" height="67" as="geometry">
            <mxRectangle width="77" height="67" as="alternateBounds" />
          </mxGeometry>
        </mxCell>
        <mxCell id="zV5-nlUjaIhCNrpp0IqO-152" style="shape=tableRow;horizontal=0;startSize=0;swimlaneHead=0;swimlaneBody=0;strokeColor=inherit;top=0;left=0;bottom=0;right=0;collapsible=0;dropTarget=0;fillColor=none;points=[[0,0.5],[1,0.5]];portConstraint=eastwest;fontSize=16;" vertex="1" parent="zV5-nlUjaIhCNrpp0IqO-1">
          <mxGeometry y="268" width="1077" height="67" as="geometry" />
        </mxCell>
        <mxCell id="zV5-nlUjaIhCNrpp0IqO-153" style="shape=partialRectangle;html=1;whiteSpace=wrap;connectable=0;strokeColor=inherit;overflow=hidden;fillColor=none;top=0;left=0;bottom=0;right=0;pointerEvents=1;fontSize=16;" vertex="1" parent="zV5-nlUjaIhCNrpp0IqO-152">
          <mxGeometry width="77" height="67" as="geometry">
            <mxRectangle width="77" height="67" as="alternateBounds" />
          </mxGeometry>
        </mxCell>
        <mxCell id="zV5-nlUjaIhCNrpp0IqO-154" style="shape=partialRectangle;html=1;whiteSpace=wrap;connectable=0;strokeColor=inherit;overflow=hidden;fillColor=none;top=0;left=0;bottom=0;right=0;pointerEvents=1;fontSize=16;" vertex="1" parent="zV5-nlUjaIhCNrpp0IqO-152">
          <mxGeometry x="77" width="77" height="67" as="geometry">
            <mxRectangle width="77" height="67" as="alternateBounds" />
          </mxGeometry>
        </mxCell>
        <mxCell id="zV5-nlUjaIhCNrpp0IqO-155" style="shape=partialRectangle;html=1;whiteSpace=wrap;connectable=0;strokeColor=inherit;overflow=hidden;fillColor=none;top=0;left=0;bottom=0;right=0;pointerEvents=1;fontSize=16;" vertex="1" parent="zV5-nlUjaIhCNrpp0IqO-152">
          <mxGeometry x="154" width="77" height="67" as="geometry">
            <mxRectangle width="77" height="67" as="alternateBounds" />
          </mxGeometry>
        </mxCell>
        <mxCell id="zV5-nlUjaIhCNrpp0IqO-156" style="shape=partialRectangle;html=1;whiteSpace=wrap;connectable=0;strokeColor=inherit;overflow=hidden;fillColor=none;top=0;left=0;bottom=0;right=0;pointerEvents=1;fontSize=16;" vertex="1" parent="zV5-nlUjaIhCNrpp0IqO-152">
          <mxGeometry x="231" width="77" height="67" as="geometry">
            <mxRectangle width="77" height="67" as="alternateBounds" />
          </mxGeometry>
        </mxCell>
        <mxCell id="zV5-nlUjaIhCNrpp0IqO-157" style="shape=partialRectangle;html=1;whiteSpace=wrap;connectable=0;strokeColor=inherit;overflow=hidden;fillColor=none;top=0;left=0;bottom=0;right=0;pointerEvents=1;fontSize=16;" vertex="1" parent="zV5-nlUjaIhCNrpp0IqO-152">
          <mxGeometry x="308" width="77" height="67" as="geometry">
            <mxRectangle width="77" height="67" as="alternateBounds" />
          </mxGeometry>
        </mxCell>
        <mxCell id="zV5-nlUjaIhCNrpp0IqO-158" style="shape=partialRectangle;html=1;whiteSpace=wrap;connectable=0;strokeColor=inherit;overflow=hidden;fillColor=none;top=0;left=0;bottom=0;right=0;pointerEvents=1;fontSize=16;" vertex="1" parent="zV5-nlUjaIhCNrpp0IqO-152">
          <mxGeometry x="385" width="77" height="67" as="geometry">
            <mxRectangle width="77" height="67" as="alternateBounds" />
          </mxGeometry>
        </mxCell>
        <mxCell id="zV5-nlUjaIhCNrpp0IqO-159" style="shape=partialRectangle;html=1;whiteSpace=wrap;connectable=0;strokeColor=inherit;overflow=hidden;fillColor=none;top=0;left=0;bottom=0;right=0;pointerEvents=1;fontSize=16;" vertex="1" parent="zV5-nlUjaIhCNrpp0IqO-152">
          <mxGeometry x="462" width="77" height="67" as="geometry">
            <mxRectangle width="77" height="67" as="alternateBounds" />
          </mxGeometry>
        </mxCell>
        <mxCell id="zV5-nlUjaIhCNrpp0IqO-160" style="shape=partialRectangle;html=1;whiteSpace=wrap;connectable=0;strokeColor=inherit;overflow=hidden;fillColor=none;top=0;left=0;bottom=0;right=0;pointerEvents=1;fontSize=16;" vertex="1" parent="zV5-nlUjaIhCNrpp0IqO-152">
          <mxGeometry x="539" width="77" height="67" as="geometry">
            <mxRectangle width="77" height="67" as="alternateBounds" />
          </mxGeometry>
        </mxCell>
        <mxCell id="zV5-nlUjaIhCNrpp0IqO-161" style="shape=partialRectangle;html=1;whiteSpace=wrap;connectable=0;strokeColor=inherit;overflow=hidden;fillColor=none;top=0;left=0;bottom=0;right=0;pointerEvents=1;fontSize=16;" vertex="1" parent="zV5-nlUjaIhCNrpp0IqO-152">
          <mxGeometry x="616" width="77" height="67" as="geometry">
            <mxRectangle width="77" height="67" as="alternateBounds" />
          </mxGeometry>
        </mxCell>
        <mxCell id="zV5-nlUjaIhCNrpp0IqO-162" style="shape=partialRectangle;html=1;whiteSpace=wrap;connectable=0;strokeColor=inherit;overflow=hidden;fillColor=none;top=0;left=0;bottom=0;right=0;pointerEvents=1;fontSize=16;" vertex="1" parent="zV5-nlUjaIhCNrpp0IqO-152">
          <mxGeometry x="693" width="77" height="67" as="geometry">
            <mxRectangle width="77" height="67" as="alternateBounds" />
          </mxGeometry>
        </mxCell>
        <mxCell id="zV5-nlUjaIhCNrpp0IqO-163" style="shape=partialRectangle;html=1;whiteSpace=wrap;connectable=0;strokeColor=inherit;overflow=hidden;fillColor=none;top=0;left=0;bottom=0;right=0;pointerEvents=1;fontSize=16;" vertex="1" parent="zV5-nlUjaIhCNrpp0IqO-152">
          <mxGeometry x="770" width="77" height="67" as="geometry">
            <mxRectangle width="77" height="67" as="alternateBounds" />
          </mxGeometry>
        </mxCell>
        <mxCell id="zV5-nlUjaIhCNrpp0IqO-164" style="shape=partialRectangle;html=1;whiteSpace=wrap;connectable=0;strokeColor=inherit;overflow=hidden;fillColor=none;top=0;left=0;bottom=0;right=0;pointerEvents=1;fontSize=16;" vertex="1" parent="zV5-nlUjaIhCNrpp0IqO-152">
          <mxGeometry x="847" width="77" height="67" as="geometry">
            <mxRectangle width="77" height="67" as="alternateBounds" />
          </mxGeometry>
        </mxCell>
        <mxCell id="zV5-nlUjaIhCNrpp0IqO-165" style="shape=partialRectangle;html=1;whiteSpace=wrap;connectable=0;strokeColor=inherit;overflow=hidden;fillColor=none;top=0;left=0;bottom=0;right=0;pointerEvents=1;fontSize=16;" vertex="1" parent="zV5-nlUjaIhCNrpp0IqO-152">
          <mxGeometry x="924" width="76" height="67" as="geometry">
            <mxRectangle width="76" height="67" as="alternateBounds" />
          </mxGeometry>
        </mxCell>
        <mxCell id="zV5-nlUjaIhCNrpp0IqO-166" style="shape=partialRectangle;html=1;whiteSpace=wrap;connectable=0;strokeColor=inherit;overflow=hidden;fillColor=none;top=0;left=0;bottom=0;right=0;pointerEvents=1;fontSize=16;" vertex="1" parent="zV5-nlUjaIhCNrpp0IqO-152">
          <mxGeometry x="1000" width="77" height="67" as="geometry">
            <mxRectangle width="77" height="67" as="alternateBounds" />
          </mxGeometry>
        </mxCell>
        <mxCell id="zV5-nlUjaIhCNrpp0IqO-167" style="shape=tableRow;horizontal=0;startSize=0;swimlaneHead=0;swimlaneBody=0;strokeColor=inherit;top=0;left=0;bottom=0;right=0;collapsible=0;dropTarget=0;fillColor=none;points=[[0,0.5],[1,0.5]];portConstraint=eastwest;fontSize=16;" vertex="1" parent="zV5-nlUjaIhCNrpp0IqO-1">
          <mxGeometry y="335" width="1077" height="67" as="geometry" />
        </mxCell>
        <mxCell id="zV5-nlUjaIhCNrpp0IqO-168" style="shape=partialRectangle;html=1;whiteSpace=wrap;connectable=0;strokeColor=inherit;overflow=hidden;fillColor=none;top=0;left=0;bottom=0;right=0;pointerEvents=1;fontSize=16;" vertex="1" parent="zV5-nlUjaIhCNrpp0IqO-167">
          <mxGeometry width="77" height="67" as="geometry">
            <mxRectangle width="77" height="67" as="alternateBounds" />
          </mxGeometry>
        </mxCell>
        <mxCell id="zV5-nlUjaIhCNrpp0IqO-169" style="shape=partialRectangle;html=1;whiteSpace=wrap;connectable=0;strokeColor=inherit;overflow=hidden;fillColor=none;top=0;left=0;bottom=0;right=0;pointerEvents=1;fontSize=16;" vertex="1" parent="zV5-nlUjaIhCNrpp0IqO-167">
          <mxGeometry x="77" width="77" height="67" as="geometry">
            <mxRectangle width="77" height="67" as="alternateBounds" />
          </mxGeometry>
        </mxCell>
        <mxCell id="zV5-nlUjaIhCNrpp0IqO-170" style="shape=partialRectangle;html=1;whiteSpace=wrap;connectable=0;strokeColor=inherit;overflow=hidden;fillColor=none;top=0;left=0;bottom=0;right=0;pointerEvents=1;fontSize=16;" vertex="1" parent="zV5-nlUjaIhCNrpp0IqO-167">
          <mxGeometry x="154" width="77" height="67" as="geometry">
            <mxRectangle width="77" height="67" as="alternateBounds" />
          </mxGeometry>
        </mxCell>
        <mxCell id="zV5-nlUjaIhCNrpp0IqO-171" style="shape=partialRectangle;html=1;whiteSpace=wrap;connectable=0;strokeColor=inherit;overflow=hidden;fillColor=none;top=0;left=0;bottom=0;right=0;pointerEvents=1;fontSize=16;" vertex="1" parent="zV5-nlUjaIhCNrpp0IqO-167">
          <mxGeometry x="231" width="77" height="67" as="geometry">
            <mxRectangle width="77" height="67" as="alternateBounds" />
          </mxGeometry>
        </mxCell>
        <mxCell id="zV5-nlUjaIhCNrpp0IqO-172" style="shape=partialRectangle;html=1;whiteSpace=wrap;connectable=0;strokeColor=inherit;overflow=hidden;fillColor=none;top=0;left=0;bottom=0;right=0;pointerEvents=1;fontSize=16;" vertex="1" parent="zV5-nlUjaIhCNrpp0IqO-167">
          <mxGeometry x="308" width="77" height="67" as="geometry">
            <mxRectangle width="77" height="67" as="alternateBounds" />
          </mxGeometry>
        </mxCell>
        <mxCell id="zV5-nlUjaIhCNrpp0IqO-173" style="shape=partialRectangle;html=1;whiteSpace=wrap;connectable=0;strokeColor=inherit;overflow=hidden;fillColor=none;top=0;left=0;bottom=0;right=0;pointerEvents=1;fontSize=16;" vertex="1" parent="zV5-nlUjaIhCNrpp0IqO-167">
          <mxGeometry x="385" width="77" height="67" as="geometry">
            <mxRectangle width="77" height="67" as="alternateBounds" />
          </mxGeometry>
        </mxCell>
        <mxCell id="zV5-nlUjaIhCNrpp0IqO-174" style="shape=partialRectangle;html=1;whiteSpace=wrap;connectable=0;strokeColor=inherit;overflow=hidden;fillColor=none;top=0;left=0;bottom=0;right=0;pointerEvents=1;fontSize=16;" vertex="1" parent="zV5-nlUjaIhCNrpp0IqO-167">
          <mxGeometry x="462" width="77" height="67" as="geometry">
            <mxRectangle width="77" height="67" as="alternateBounds" />
          </mxGeometry>
        </mxCell>
        <mxCell id="zV5-nlUjaIhCNrpp0IqO-175" style="shape=partialRectangle;html=1;whiteSpace=wrap;connectable=0;strokeColor=inherit;overflow=hidden;fillColor=none;top=0;left=0;bottom=0;right=0;pointerEvents=1;fontSize=16;" vertex="1" parent="zV5-nlUjaIhCNrpp0IqO-167">
          <mxGeometry x="539" width="77" height="67" as="geometry">
            <mxRectangle width="77" height="67" as="alternateBounds" />
          </mxGeometry>
        </mxCell>
        <mxCell id="zV5-nlUjaIhCNrpp0IqO-176" style="shape=partialRectangle;html=1;whiteSpace=wrap;connectable=0;strokeColor=inherit;overflow=hidden;fillColor=none;top=0;left=0;bottom=0;right=0;pointerEvents=1;fontSize=16;" vertex="1" parent="zV5-nlUjaIhCNrpp0IqO-167">
          <mxGeometry x="616" width="77" height="67" as="geometry">
            <mxRectangle width="77" height="67" as="alternateBounds" />
          </mxGeometry>
        </mxCell>
        <mxCell id="zV5-nlUjaIhCNrpp0IqO-177" style="shape=partialRectangle;html=1;whiteSpace=wrap;connectable=0;strokeColor=inherit;overflow=hidden;fillColor=none;top=0;left=0;bottom=0;right=0;pointerEvents=1;fontSize=16;" vertex="1" parent="zV5-nlUjaIhCNrpp0IqO-167">
          <mxGeometry x="693" width="77" height="67" as="geometry">
            <mxRectangle width="77" height="67" as="alternateBounds" />
          </mxGeometry>
        </mxCell>
        <mxCell id="zV5-nlUjaIhCNrpp0IqO-178" style="shape=partialRectangle;html=1;whiteSpace=wrap;connectable=0;strokeColor=inherit;overflow=hidden;fillColor=none;top=0;left=0;bottom=0;right=0;pointerEvents=1;fontSize=16;" vertex="1" parent="zV5-nlUjaIhCNrpp0IqO-167">
          <mxGeometry x="770" width="77" height="67" as="geometry">
            <mxRectangle width="77" height="67" as="alternateBounds" />
          </mxGeometry>
        </mxCell>
        <mxCell id="zV5-nlUjaIhCNrpp0IqO-179" style="shape=partialRectangle;html=1;whiteSpace=wrap;connectable=0;strokeColor=inherit;overflow=hidden;fillColor=none;top=0;left=0;bottom=0;right=0;pointerEvents=1;fontSize=16;" vertex="1" parent="zV5-nlUjaIhCNrpp0IqO-167">
          <mxGeometry x="847" width="77" height="67" as="geometry">
            <mxRectangle width="77" height="67" as="alternateBounds" />
          </mxGeometry>
        </mxCell>
        <mxCell id="zV5-nlUjaIhCNrpp0IqO-180" style="shape=partialRectangle;html=1;whiteSpace=wrap;connectable=0;strokeColor=inherit;overflow=hidden;fillColor=none;top=0;left=0;bottom=0;right=0;pointerEvents=1;fontSize=16;" vertex="1" parent="zV5-nlUjaIhCNrpp0IqO-167">
          <mxGeometry x="924" width="76" height="67" as="geometry">
            <mxRectangle width="76" height="67" as="alternateBounds" />
          </mxGeometry>
        </mxCell>
        <mxCell id="zV5-nlUjaIhCNrpp0IqO-181" style="shape=partialRectangle;html=1;whiteSpace=wrap;connectable=0;strokeColor=inherit;overflow=hidden;fillColor=none;top=0;left=0;bottom=0;right=0;pointerEvents=1;fontSize=16;" vertex="1" parent="zV5-nlUjaIhCNrpp0IqO-167">
          <mxGeometry x="1000" width="77" height="67" as="geometry">
            <mxRectangle width="77" height="67" as="alternateBounds" />
          </mxGeometry>
        </mxCell>
        <mxCell id="zV5-nlUjaIhCNrpp0IqO-182" style="shape=tableRow;horizontal=0;startSize=0;swimlaneHead=0;swimlaneBody=0;strokeColor=inherit;top=0;left=0;bottom=0;right=0;collapsible=0;dropTarget=0;fillColor=none;points=[[0,0.5],[1,0.5]];portConstraint=eastwest;fontSize=16;" vertex="1" parent="zV5-nlUjaIhCNrpp0IqO-1">
          <mxGeometry y="402" width="1077" height="67" as="geometry" />
        </mxCell>
        <mxCell id="zV5-nlUjaIhCNrpp0IqO-183" style="shape=partialRectangle;html=1;whiteSpace=wrap;connectable=0;strokeColor=inherit;overflow=hidden;fillColor=none;top=0;left=0;bottom=0;right=0;pointerEvents=1;fontSize=16;" vertex="1" parent="zV5-nlUjaIhCNrpp0IqO-182">
          <mxGeometry width="77" height="67" as="geometry">
            <mxRectangle width="77" height="67" as="alternateBounds" />
          </mxGeometry>
        </mxCell>
        <mxCell id="zV5-nlUjaIhCNrpp0IqO-184" style="shape=partialRectangle;html=1;whiteSpace=wrap;connectable=0;strokeColor=inherit;overflow=hidden;fillColor=none;top=0;left=0;bottom=0;right=0;pointerEvents=1;fontSize=16;" vertex="1" parent="zV5-nlUjaIhCNrpp0IqO-182">
          <mxGeometry x="77" width="77" height="67" as="geometry">
            <mxRectangle width="77" height="67" as="alternateBounds" />
          </mxGeometry>
        </mxCell>
        <mxCell id="zV5-nlUjaIhCNrpp0IqO-185" style="shape=partialRectangle;html=1;whiteSpace=wrap;connectable=0;strokeColor=inherit;overflow=hidden;fillColor=none;top=0;left=0;bottom=0;right=0;pointerEvents=1;fontSize=16;" vertex="1" parent="zV5-nlUjaIhCNrpp0IqO-182">
          <mxGeometry x="154" width="77" height="67" as="geometry">
            <mxRectangle width="77" height="67" as="alternateBounds" />
          </mxGeometry>
        </mxCell>
        <mxCell id="zV5-nlUjaIhCNrpp0IqO-186" style="shape=partialRectangle;html=1;whiteSpace=wrap;connectable=0;strokeColor=inherit;overflow=hidden;fillColor=none;top=0;left=0;bottom=0;right=0;pointerEvents=1;fontSize=16;" vertex="1" parent="zV5-nlUjaIhCNrpp0IqO-182">
          <mxGeometry x="231" width="77" height="67" as="geometry">
            <mxRectangle width="77" height="67" as="alternateBounds" />
          </mxGeometry>
        </mxCell>
        <mxCell id="zV5-nlUjaIhCNrpp0IqO-187" style="shape=partialRectangle;html=1;whiteSpace=wrap;connectable=0;strokeColor=inherit;overflow=hidden;fillColor=none;top=0;left=0;bottom=0;right=0;pointerEvents=1;fontSize=16;" vertex="1" parent="zV5-nlUjaIhCNrpp0IqO-182">
          <mxGeometry x="308" width="77" height="67" as="geometry">
            <mxRectangle width="77" height="67" as="alternateBounds" />
          </mxGeometry>
        </mxCell>
        <mxCell id="zV5-nlUjaIhCNrpp0IqO-188" style="shape=partialRectangle;html=1;whiteSpace=wrap;connectable=0;strokeColor=inherit;overflow=hidden;fillColor=none;top=0;left=0;bottom=0;right=0;pointerEvents=1;fontSize=16;" vertex="1" parent="zV5-nlUjaIhCNrpp0IqO-182">
          <mxGeometry x="385" width="77" height="67" as="geometry">
            <mxRectangle width="77" height="67" as="alternateBounds" />
          </mxGeometry>
        </mxCell>
        <mxCell id="zV5-nlUjaIhCNrpp0IqO-189" style="shape=partialRectangle;html=1;whiteSpace=wrap;connectable=0;strokeColor=inherit;overflow=hidden;fillColor=none;top=0;left=0;bottom=0;right=0;pointerEvents=1;fontSize=16;" vertex="1" parent="zV5-nlUjaIhCNrpp0IqO-182">
          <mxGeometry x="462" width="77" height="67" as="geometry">
            <mxRectangle width="77" height="67" as="alternateBounds" />
          </mxGeometry>
        </mxCell>
        <mxCell id="zV5-nlUjaIhCNrpp0IqO-190" style="shape=partialRectangle;html=1;whiteSpace=wrap;connectable=0;strokeColor=inherit;overflow=hidden;fillColor=none;top=0;left=0;bottom=0;right=0;pointerEvents=1;fontSize=16;" vertex="1" parent="zV5-nlUjaIhCNrpp0IqO-182">
          <mxGeometry x="539" width="77" height="67" as="geometry">
            <mxRectangle width="77" height="67" as="alternateBounds" />
          </mxGeometry>
        </mxCell>
        <mxCell id="zV5-nlUjaIhCNrpp0IqO-191" style="shape=partialRectangle;html=1;whiteSpace=wrap;connectable=0;strokeColor=inherit;overflow=hidden;fillColor=none;top=0;left=0;bottom=0;right=0;pointerEvents=1;fontSize=16;" vertex="1" parent="zV5-nlUjaIhCNrpp0IqO-182">
          <mxGeometry x="616" width="77" height="67" as="geometry">
            <mxRectangle width="77" height="67" as="alternateBounds" />
          </mxGeometry>
        </mxCell>
        <mxCell id="zV5-nlUjaIhCNrpp0IqO-192" style="shape=partialRectangle;html=1;whiteSpace=wrap;connectable=0;strokeColor=inherit;overflow=hidden;fillColor=none;top=0;left=0;bottom=0;right=0;pointerEvents=1;fontSize=16;" vertex="1" parent="zV5-nlUjaIhCNrpp0IqO-182">
          <mxGeometry x="693" width="77" height="67" as="geometry">
            <mxRectangle width="77" height="67" as="alternateBounds" />
          </mxGeometry>
        </mxCell>
        <mxCell id="zV5-nlUjaIhCNrpp0IqO-193" style="shape=partialRectangle;html=1;whiteSpace=wrap;connectable=0;strokeColor=inherit;overflow=hidden;fillColor=none;top=0;left=0;bottom=0;right=0;pointerEvents=1;fontSize=16;" vertex="1" parent="zV5-nlUjaIhCNrpp0IqO-182">
          <mxGeometry x="770" width="77" height="67" as="geometry">
            <mxRectangle width="77" height="67" as="alternateBounds" />
          </mxGeometry>
        </mxCell>
        <mxCell id="zV5-nlUjaIhCNrpp0IqO-194" style="shape=partialRectangle;html=1;whiteSpace=wrap;connectable=0;strokeColor=inherit;overflow=hidden;fillColor=none;top=0;left=0;bottom=0;right=0;pointerEvents=1;fontSize=16;" vertex="1" parent="zV5-nlUjaIhCNrpp0IqO-182">
          <mxGeometry x="847" width="77" height="67" as="geometry">
            <mxRectangle width="77" height="67" as="alternateBounds" />
          </mxGeometry>
        </mxCell>
        <mxCell id="zV5-nlUjaIhCNrpp0IqO-195" style="shape=partialRectangle;html=1;whiteSpace=wrap;connectable=0;strokeColor=inherit;overflow=hidden;fillColor=none;top=0;left=0;bottom=0;right=0;pointerEvents=1;fontSize=16;" vertex="1" parent="zV5-nlUjaIhCNrpp0IqO-182">
          <mxGeometry x="924" width="76" height="67" as="geometry">
            <mxRectangle width="76" height="67" as="alternateBounds" />
          </mxGeometry>
        </mxCell>
        <mxCell id="zV5-nlUjaIhCNrpp0IqO-196" style="shape=partialRectangle;html=1;whiteSpace=wrap;connectable=0;strokeColor=inherit;overflow=hidden;fillColor=none;top=0;left=0;bottom=0;right=0;pointerEvents=1;fontSize=16;" vertex="1" parent="zV5-nlUjaIhCNrpp0IqO-182">
          <mxGeometry x="1000" width="77" height="67" as="geometry">
            <mxRectangle width="77" height="67" as="alternateBounds" />
          </mxGeometry>
        </mxCell>
        <mxCell id="zV5-nlUjaIhCNrpp0IqO-197" style="shape=tableRow;horizontal=0;startSize=0;swimlaneHead=0;swimlaneBody=0;strokeColor=inherit;top=0;left=0;bottom=0;right=0;collapsible=0;dropTarget=0;fillColor=none;points=[[0,0.5],[1,0.5]];portConstraint=eastwest;fontSize=16;" vertex="1" parent="zV5-nlUjaIhCNrpp0IqO-1">
          <mxGeometry y="469" width="1077" height="67" as="geometry" />
        </mxCell>
        <mxCell id="zV5-nlUjaIhCNrpp0IqO-198" style="shape=partialRectangle;html=1;whiteSpace=wrap;connectable=0;strokeColor=inherit;overflow=hidden;fillColor=none;top=0;left=0;bottom=0;right=0;pointerEvents=1;fontSize=16;" vertex="1" parent="zV5-nlUjaIhCNrpp0IqO-197">
          <mxGeometry width="77" height="67" as="geometry">
            <mxRectangle width="77" height="67" as="alternateBounds" />
          </mxGeometry>
        </mxCell>
        <mxCell id="zV5-nlUjaIhCNrpp0IqO-199" style="shape=partialRectangle;html=1;whiteSpace=wrap;connectable=0;strokeColor=inherit;overflow=hidden;fillColor=none;top=0;left=0;bottom=0;right=0;pointerEvents=1;fontSize=16;" vertex="1" parent="zV5-nlUjaIhCNrpp0IqO-197">
          <mxGeometry x="77" width="77" height="67" as="geometry">
            <mxRectangle width="77" height="67" as="alternateBounds" />
          </mxGeometry>
        </mxCell>
        <mxCell id="zV5-nlUjaIhCNrpp0IqO-200" style="shape=partialRectangle;html=1;whiteSpace=wrap;connectable=0;strokeColor=inherit;overflow=hidden;fillColor=none;top=0;left=0;bottom=0;right=0;pointerEvents=1;fontSize=16;" vertex="1" parent="zV5-nlUjaIhCNrpp0IqO-197">
          <mxGeometry x="154" width="77" height="67" as="geometry">
            <mxRectangle width="77" height="67" as="alternateBounds" />
          </mxGeometry>
        </mxCell>
        <mxCell id="zV5-nlUjaIhCNrpp0IqO-201" style="shape=partialRectangle;html=1;whiteSpace=wrap;connectable=0;strokeColor=inherit;overflow=hidden;fillColor=none;top=0;left=0;bottom=0;right=0;pointerEvents=1;fontSize=16;" vertex="1" parent="zV5-nlUjaIhCNrpp0IqO-197">
          <mxGeometry x="231" width="77" height="67" as="geometry">
            <mxRectangle width="77" height="67" as="alternateBounds" />
          </mxGeometry>
        </mxCell>
        <mxCell id="zV5-nlUjaIhCNrpp0IqO-202" style="shape=partialRectangle;html=1;whiteSpace=wrap;connectable=0;strokeColor=inherit;overflow=hidden;fillColor=none;top=0;left=0;bottom=0;right=0;pointerEvents=1;fontSize=16;" vertex="1" parent="zV5-nlUjaIhCNrpp0IqO-197">
          <mxGeometry x="308" width="77" height="67" as="geometry">
            <mxRectangle width="77" height="67" as="alternateBounds" />
          </mxGeometry>
        </mxCell>
        <mxCell id="zV5-nlUjaIhCNrpp0IqO-203" style="shape=partialRectangle;html=1;whiteSpace=wrap;connectable=0;strokeColor=inherit;overflow=hidden;fillColor=none;top=0;left=0;bottom=0;right=0;pointerEvents=1;fontSize=16;" vertex="1" parent="zV5-nlUjaIhCNrpp0IqO-197">
          <mxGeometry x="385" width="77" height="67" as="geometry">
            <mxRectangle width="77" height="67" as="alternateBounds" />
          </mxGeometry>
        </mxCell>
        <mxCell id="zV5-nlUjaIhCNrpp0IqO-204" style="shape=partialRectangle;html=1;whiteSpace=wrap;connectable=0;strokeColor=inherit;overflow=hidden;fillColor=none;top=0;left=0;bottom=0;right=0;pointerEvents=1;fontSize=16;" vertex="1" parent="zV5-nlUjaIhCNrpp0IqO-197">
          <mxGeometry x="462" width="77" height="67" as="geometry">
            <mxRectangle width="77" height="67" as="alternateBounds" />
          </mxGeometry>
        </mxCell>
        <mxCell id="zV5-nlUjaIhCNrpp0IqO-205" style="shape=partialRectangle;html=1;whiteSpace=wrap;connectable=0;strokeColor=inherit;overflow=hidden;fillColor=none;top=0;left=0;bottom=0;right=0;pointerEvents=1;fontSize=16;" vertex="1" parent="zV5-nlUjaIhCNrpp0IqO-197">
          <mxGeometry x="539" width="77" height="67" as="geometry">
            <mxRectangle width="77" height="67" as="alternateBounds" />
          </mxGeometry>
        </mxCell>
        <mxCell id="zV5-nlUjaIhCNrpp0IqO-206" style="shape=partialRectangle;html=1;whiteSpace=wrap;connectable=0;strokeColor=inherit;overflow=hidden;fillColor=none;top=0;left=0;bottom=0;right=0;pointerEvents=1;fontSize=16;" vertex="1" parent="zV5-nlUjaIhCNrpp0IqO-197">
          <mxGeometry x="616" width="77" height="67" as="geometry">
            <mxRectangle width="77" height="67" as="alternateBounds" />
          </mxGeometry>
        </mxCell>
        <mxCell id="zV5-nlUjaIhCNrpp0IqO-207" style="shape=partialRectangle;html=1;whiteSpace=wrap;connectable=0;strokeColor=inherit;overflow=hidden;fillColor=none;top=0;left=0;bottom=0;right=0;pointerEvents=1;fontSize=16;" vertex="1" parent="zV5-nlUjaIhCNrpp0IqO-197">
          <mxGeometry x="693" width="77" height="67" as="geometry">
            <mxRectangle width="77" height="67" as="alternateBounds" />
          </mxGeometry>
        </mxCell>
        <mxCell id="zV5-nlUjaIhCNrpp0IqO-208" style="shape=partialRectangle;html=1;whiteSpace=wrap;connectable=0;strokeColor=inherit;overflow=hidden;fillColor=none;top=0;left=0;bottom=0;right=0;pointerEvents=1;fontSize=16;" vertex="1" parent="zV5-nlUjaIhCNrpp0IqO-197">
          <mxGeometry x="770" width="77" height="67" as="geometry">
            <mxRectangle width="77" height="67" as="alternateBounds" />
          </mxGeometry>
        </mxCell>
        <mxCell id="zV5-nlUjaIhCNrpp0IqO-209" style="shape=partialRectangle;html=1;whiteSpace=wrap;connectable=0;strokeColor=inherit;overflow=hidden;fillColor=none;top=0;left=0;bottom=0;right=0;pointerEvents=1;fontSize=16;" vertex="1" parent="zV5-nlUjaIhCNrpp0IqO-197">
          <mxGeometry x="847" width="77" height="67" as="geometry">
            <mxRectangle width="77" height="67" as="alternateBounds" />
          </mxGeometry>
        </mxCell>
        <mxCell id="zV5-nlUjaIhCNrpp0IqO-210" style="shape=partialRectangle;html=1;whiteSpace=wrap;connectable=0;strokeColor=inherit;overflow=hidden;fillColor=none;top=0;left=0;bottom=0;right=0;pointerEvents=1;fontSize=16;" vertex="1" parent="zV5-nlUjaIhCNrpp0IqO-197">
          <mxGeometry x="924" width="76" height="67" as="geometry">
            <mxRectangle width="76" height="67" as="alternateBounds" />
          </mxGeometry>
        </mxCell>
        <mxCell id="zV5-nlUjaIhCNrpp0IqO-211" style="shape=partialRectangle;html=1;whiteSpace=wrap;connectable=0;strokeColor=inherit;overflow=hidden;fillColor=none;top=0;left=0;bottom=0;right=0;pointerEvents=1;fontSize=16;" vertex="1" parent="zV5-nlUjaIhCNrpp0IqO-197">
          <mxGeometry x="1000" width="77" height="67" as="geometry">
            <mxRectangle width="77" height="67" as="alternateBounds" />
          </mxGeometry>
        </mxCell>
        <mxCell id="zV5-nlUjaIhCNrpp0IqO-2" value="" style="shape=tableRow;horizontal=0;startSize=0;swimlaneHead=0;swimlaneBody=0;strokeColor=inherit;top=0;left=0;bottom=0;right=0;collapsible=0;dropTarget=0;fillColor=none;points=[[0,0.5],[1,0.5]];portConstraint=eastwest;fontSize=16;" vertex="1" parent="zV5-nlUjaIhCNrpp0IqO-1">
          <mxGeometry y="536" width="1077" height="67" as="geometry" />
        </mxCell>
        <mxCell id="zV5-nlUjaIhCNrpp0IqO-44" style="shape=partialRectangle;html=1;whiteSpace=wrap;connectable=0;strokeColor=inherit;overflow=hidden;fillColor=none;top=0;left=0;bottom=0;right=0;pointerEvents=1;fontSize=16;" vertex="1" parent="zV5-nlUjaIhCNrpp0IqO-2">
          <mxGeometry width="77" height="67" as="geometry">
            <mxRectangle width="77" height="67" as="alternateBounds" />
          </mxGeometry>
        </mxCell>
        <mxCell id="zV5-nlUjaIhCNrpp0IqO-41" style="shape=partialRectangle;html=1;whiteSpace=wrap;connectable=0;strokeColor=inherit;overflow=hidden;fillColor=none;top=0;left=0;bottom=0;right=0;pointerEvents=1;fontSize=16;" vertex="1" parent="zV5-nlUjaIhCNrpp0IqO-2">
          <mxGeometry x="77" width="77" height="67" as="geometry">
            <mxRectangle width="77" height="67" as="alternateBounds" />
          </mxGeometry>
        </mxCell>
        <mxCell id="zV5-nlUjaIhCNrpp0IqO-38" style="shape=partialRectangle;html=1;whiteSpace=wrap;connectable=0;strokeColor=inherit;overflow=hidden;fillColor=none;top=0;left=0;bottom=0;right=0;pointerEvents=1;fontSize=16;" vertex="1" parent="zV5-nlUjaIhCNrpp0IqO-2">
          <mxGeometry x="154" width="77" height="67" as="geometry">
            <mxRectangle width="77" height="67" as="alternateBounds" />
          </mxGeometry>
        </mxCell>
        <mxCell id="zV5-nlUjaIhCNrpp0IqO-35" style="shape=partialRectangle;html=1;whiteSpace=wrap;connectable=0;strokeColor=inherit;overflow=hidden;fillColor=none;top=0;left=0;bottom=0;right=0;pointerEvents=1;fontSize=16;" vertex="1" parent="zV5-nlUjaIhCNrpp0IqO-2">
          <mxGeometry x="231" width="77" height="67" as="geometry">
            <mxRectangle width="77" height="67" as="alternateBounds" />
          </mxGeometry>
        </mxCell>
        <mxCell id="zV5-nlUjaIhCNrpp0IqO-32" style="shape=partialRectangle;html=1;whiteSpace=wrap;connectable=0;strokeColor=inherit;overflow=hidden;fillColor=none;top=0;left=0;bottom=0;right=0;pointerEvents=1;fontSize=16;" vertex="1" parent="zV5-nlUjaIhCNrpp0IqO-2">
          <mxGeometry x="308" width="77" height="67" as="geometry">
            <mxRectangle width="77" height="67" as="alternateBounds" />
          </mxGeometry>
        </mxCell>
        <mxCell id="zV5-nlUjaIhCNrpp0IqO-29" style="shape=partialRectangle;html=1;whiteSpace=wrap;connectable=0;strokeColor=inherit;overflow=hidden;fillColor=none;top=0;left=0;bottom=0;right=0;pointerEvents=1;fontSize=16;" vertex="1" parent="zV5-nlUjaIhCNrpp0IqO-2">
          <mxGeometry x="385" width="77" height="67" as="geometry">
            <mxRectangle width="77" height="67" as="alternateBounds" />
          </mxGeometry>
        </mxCell>
        <mxCell id="zV5-nlUjaIhCNrpp0IqO-26" style="shape=partialRectangle;html=1;whiteSpace=wrap;connectable=0;strokeColor=inherit;overflow=hidden;fillColor=none;top=0;left=0;bottom=0;right=0;pointerEvents=1;fontSize=16;" vertex="1" parent="zV5-nlUjaIhCNrpp0IqO-2">
          <mxGeometry x="462" width="77" height="67" as="geometry">
            <mxRectangle width="77" height="67" as="alternateBounds" />
          </mxGeometry>
        </mxCell>
        <mxCell id="zV5-nlUjaIhCNrpp0IqO-23" style="shape=partialRectangle;html=1;whiteSpace=wrap;connectable=0;strokeColor=inherit;overflow=hidden;fillColor=none;top=0;left=0;bottom=0;right=0;pointerEvents=1;fontSize=16;" vertex="1" parent="zV5-nlUjaIhCNrpp0IqO-2">
          <mxGeometry x="539" width="77" height="67" as="geometry">
            <mxRectangle width="77" height="67" as="alternateBounds" />
          </mxGeometry>
        </mxCell>
        <mxCell id="zV5-nlUjaIhCNrpp0IqO-20" style="shape=partialRectangle;html=1;whiteSpace=wrap;connectable=0;strokeColor=inherit;overflow=hidden;fillColor=none;top=0;left=0;bottom=0;right=0;pointerEvents=1;fontSize=16;" vertex="1" parent="zV5-nlUjaIhCNrpp0IqO-2">
          <mxGeometry x="616" width="77" height="67" as="geometry">
            <mxRectangle width="77" height="67" as="alternateBounds" />
          </mxGeometry>
        </mxCell>
        <mxCell id="zV5-nlUjaIhCNrpp0IqO-17" style="shape=partialRectangle;html=1;whiteSpace=wrap;connectable=0;strokeColor=inherit;overflow=hidden;fillColor=none;top=0;left=0;bottom=0;right=0;pointerEvents=1;fontSize=16;" vertex="1" parent="zV5-nlUjaIhCNrpp0IqO-2">
          <mxGeometry x="693" width="77" height="67" as="geometry">
            <mxRectangle width="77" height="67" as="alternateBounds" />
          </mxGeometry>
        </mxCell>
        <mxCell id="zV5-nlUjaIhCNrpp0IqO-14" style="shape=partialRectangle;html=1;whiteSpace=wrap;connectable=0;strokeColor=inherit;overflow=hidden;fillColor=none;top=0;left=0;bottom=0;right=0;pointerEvents=1;fontSize=16;" vertex="1" parent="zV5-nlUjaIhCNrpp0IqO-2">
          <mxGeometry x="770" width="77" height="67" as="geometry">
            <mxRectangle width="77" height="67" as="alternateBounds" />
          </mxGeometry>
        </mxCell>
        <mxCell id="zV5-nlUjaIhCNrpp0IqO-3" value="" style="shape=partialRectangle;html=1;whiteSpace=wrap;connectable=0;strokeColor=inherit;overflow=hidden;fillColor=none;top=0;left=0;bottom=0;right=0;pointerEvents=1;fontSize=16;" vertex="1" parent="zV5-nlUjaIhCNrpp0IqO-2">
          <mxGeometry x="847" width="77" height="67" as="geometry">
            <mxRectangle width="77" height="67" as="alternateBounds" />
          </mxGeometry>
        </mxCell>
        <mxCell id="zV5-nlUjaIhCNrpp0IqO-4" value="" style="shape=partialRectangle;html=1;whiteSpace=wrap;connectable=0;strokeColor=inherit;overflow=hidden;fillColor=none;top=0;left=0;bottom=0;right=0;pointerEvents=1;fontSize=16;" vertex="1" parent="zV5-nlUjaIhCNrpp0IqO-2">
          <mxGeometry x="924" width="76" height="67" as="geometry">
            <mxRectangle width="76" height="67" as="alternateBounds" />
          </mxGeometry>
        </mxCell>
        <mxCell id="zV5-nlUjaIhCNrpp0IqO-5" value="" style="shape=partialRectangle;html=1;whiteSpace=wrap;connectable=0;strokeColor=inherit;overflow=hidden;fillColor=none;top=0;left=0;bottom=0;right=0;pointerEvents=1;fontSize=16;" vertex="1" parent="zV5-nlUjaIhCNrpp0IqO-2">
          <mxGeometry x="1000" width="77" height="67" as="geometry">
            <mxRectangle width="77" height="67" as="alternateBounds" />
          </mxGeometry>
        </mxCell>
        <mxCell id="zV5-nlUjaIhCNrpp0IqO-137" style="shape=tableRow;horizontal=0;startSize=0;swimlaneHead=0;swimlaneBody=0;strokeColor=inherit;top=0;left=0;bottom=0;right=0;collapsible=0;dropTarget=0;fillColor=none;points=[[0,0.5],[1,0.5]];portConstraint=eastwest;fontSize=16;" vertex="1" parent="zV5-nlUjaIhCNrpp0IqO-1">
          <mxGeometry y="603" width="1077" height="67" as="geometry" />
        </mxCell>
        <mxCell id="zV5-nlUjaIhCNrpp0IqO-138" style="shape=partialRectangle;html=1;whiteSpace=wrap;connectable=0;strokeColor=inherit;overflow=hidden;fillColor=none;top=0;left=0;bottom=0;right=0;pointerEvents=1;fontSize=16;" vertex="1" parent="zV5-nlUjaIhCNrpp0IqO-137">
          <mxGeometry width="77" height="67" as="geometry">
            <mxRectangle width="77" height="67" as="alternateBounds" />
          </mxGeometry>
        </mxCell>
        <mxCell id="zV5-nlUjaIhCNrpp0IqO-139" style="shape=partialRectangle;html=1;whiteSpace=wrap;connectable=0;strokeColor=inherit;overflow=hidden;fillColor=none;top=0;left=0;bottom=0;right=0;pointerEvents=1;fontSize=16;" vertex="1" parent="zV5-nlUjaIhCNrpp0IqO-137">
          <mxGeometry x="77" width="77" height="67" as="geometry">
            <mxRectangle width="77" height="67" as="alternateBounds" />
          </mxGeometry>
        </mxCell>
        <mxCell id="zV5-nlUjaIhCNrpp0IqO-140" style="shape=partialRectangle;html=1;whiteSpace=wrap;connectable=0;strokeColor=inherit;overflow=hidden;fillColor=none;top=0;left=0;bottom=0;right=0;pointerEvents=1;fontSize=16;" vertex="1" parent="zV5-nlUjaIhCNrpp0IqO-137">
          <mxGeometry x="154" width="77" height="67" as="geometry">
            <mxRectangle width="77" height="67" as="alternateBounds" />
          </mxGeometry>
        </mxCell>
        <mxCell id="zV5-nlUjaIhCNrpp0IqO-141" style="shape=partialRectangle;html=1;whiteSpace=wrap;connectable=0;strokeColor=inherit;overflow=hidden;fillColor=none;top=0;left=0;bottom=0;right=0;pointerEvents=1;fontSize=16;" vertex="1" parent="zV5-nlUjaIhCNrpp0IqO-137">
          <mxGeometry x="231" width="77" height="67" as="geometry">
            <mxRectangle width="77" height="67" as="alternateBounds" />
          </mxGeometry>
        </mxCell>
        <mxCell id="zV5-nlUjaIhCNrpp0IqO-142" style="shape=partialRectangle;html=1;whiteSpace=wrap;connectable=0;strokeColor=inherit;overflow=hidden;fillColor=none;top=0;left=0;bottom=0;right=0;pointerEvents=1;fontSize=16;" vertex="1" parent="zV5-nlUjaIhCNrpp0IqO-137">
          <mxGeometry x="308" width="77" height="67" as="geometry">
            <mxRectangle width="77" height="67" as="alternateBounds" />
          </mxGeometry>
        </mxCell>
        <mxCell id="zV5-nlUjaIhCNrpp0IqO-143" style="shape=partialRectangle;html=1;whiteSpace=wrap;connectable=0;strokeColor=inherit;overflow=hidden;fillColor=none;top=0;left=0;bottom=0;right=0;pointerEvents=1;fontSize=16;" vertex="1" parent="zV5-nlUjaIhCNrpp0IqO-137">
          <mxGeometry x="385" width="77" height="67" as="geometry">
            <mxRectangle width="77" height="67" as="alternateBounds" />
          </mxGeometry>
        </mxCell>
        <mxCell id="zV5-nlUjaIhCNrpp0IqO-144" style="shape=partialRectangle;html=1;whiteSpace=wrap;connectable=0;strokeColor=inherit;overflow=hidden;fillColor=none;top=0;left=0;bottom=0;right=0;pointerEvents=1;fontSize=16;" vertex="1" parent="zV5-nlUjaIhCNrpp0IqO-137">
          <mxGeometry x="462" width="77" height="67" as="geometry">
            <mxRectangle width="77" height="67" as="alternateBounds" />
          </mxGeometry>
        </mxCell>
        <mxCell id="zV5-nlUjaIhCNrpp0IqO-145" style="shape=partialRectangle;html=1;whiteSpace=wrap;connectable=0;strokeColor=inherit;overflow=hidden;fillColor=none;top=0;left=0;bottom=0;right=0;pointerEvents=1;fontSize=16;" vertex="1" parent="zV5-nlUjaIhCNrpp0IqO-137">
          <mxGeometry x="539" width="77" height="67" as="geometry">
            <mxRectangle width="77" height="67" as="alternateBounds" />
          </mxGeometry>
        </mxCell>
        <mxCell id="zV5-nlUjaIhCNrpp0IqO-146" style="shape=partialRectangle;html=1;whiteSpace=wrap;connectable=0;strokeColor=inherit;overflow=hidden;fillColor=none;top=0;left=0;bottom=0;right=0;pointerEvents=1;fontSize=16;" vertex="1" parent="zV5-nlUjaIhCNrpp0IqO-137">
          <mxGeometry x="616" width="77" height="67" as="geometry">
            <mxRectangle width="77" height="67" as="alternateBounds" />
          </mxGeometry>
        </mxCell>
        <mxCell id="zV5-nlUjaIhCNrpp0IqO-147" style="shape=partialRectangle;html=1;whiteSpace=wrap;connectable=0;strokeColor=inherit;overflow=hidden;fillColor=none;top=0;left=0;bottom=0;right=0;pointerEvents=1;fontSize=16;" vertex="1" parent="zV5-nlUjaIhCNrpp0IqO-137">
          <mxGeometry x="693" width="77" height="67" as="geometry">
            <mxRectangle width="77" height="67" as="alternateBounds" />
          </mxGeometry>
        </mxCell>
        <mxCell id="zV5-nlUjaIhCNrpp0IqO-148" style="shape=partialRectangle;html=1;whiteSpace=wrap;connectable=0;strokeColor=inherit;overflow=hidden;fillColor=none;top=0;left=0;bottom=0;right=0;pointerEvents=1;fontSize=16;" vertex="1" parent="zV5-nlUjaIhCNrpp0IqO-137">
          <mxGeometry x="770" width="77" height="67" as="geometry">
            <mxRectangle width="77" height="67" as="alternateBounds" />
          </mxGeometry>
        </mxCell>
        <mxCell id="zV5-nlUjaIhCNrpp0IqO-149" style="shape=partialRectangle;html=1;whiteSpace=wrap;connectable=0;strokeColor=inherit;overflow=hidden;fillColor=none;top=0;left=0;bottom=0;right=0;pointerEvents=1;fontSize=16;" vertex="1" parent="zV5-nlUjaIhCNrpp0IqO-137">
          <mxGeometry x="847" width="77" height="67" as="geometry">
            <mxRectangle width="77" height="67" as="alternateBounds" />
          </mxGeometry>
        </mxCell>
        <mxCell id="zV5-nlUjaIhCNrpp0IqO-150" style="shape=partialRectangle;html=1;whiteSpace=wrap;connectable=0;strokeColor=inherit;overflow=hidden;fillColor=none;top=0;left=0;bottom=0;right=0;pointerEvents=1;fontSize=16;" vertex="1" parent="zV5-nlUjaIhCNrpp0IqO-137">
          <mxGeometry x="924" width="76" height="67" as="geometry">
            <mxRectangle width="76" height="67" as="alternateBounds" />
          </mxGeometry>
        </mxCell>
        <mxCell id="zV5-nlUjaIhCNrpp0IqO-151" style="shape=partialRectangle;html=1;whiteSpace=wrap;connectable=0;strokeColor=inherit;overflow=hidden;fillColor=none;top=0;left=0;bottom=0;right=0;pointerEvents=1;fontSize=16;" vertex="1" parent="zV5-nlUjaIhCNrpp0IqO-137">
          <mxGeometry x="1000" width="77" height="67" as="geometry">
            <mxRectangle width="77" height="67" as="alternateBounds" />
          </mxGeometry>
        </mxCell>
        <mxCell id="zV5-nlUjaIhCNrpp0IqO-122" style="shape=tableRow;horizontal=0;startSize=0;swimlaneHead=0;swimlaneBody=0;strokeColor=inherit;top=0;left=0;bottom=0;right=0;collapsible=0;dropTarget=0;fillColor=none;points=[[0,0.5],[1,0.5]];portConstraint=eastwest;fontSize=16;" vertex="1" parent="zV5-nlUjaIhCNrpp0IqO-1">
          <mxGeometry y="670" width="1077" height="67" as="geometry" />
        </mxCell>
        <mxCell id="zV5-nlUjaIhCNrpp0IqO-123" style="shape=partialRectangle;html=1;whiteSpace=wrap;connectable=0;strokeColor=inherit;overflow=hidden;fillColor=none;top=0;left=0;bottom=0;right=0;pointerEvents=1;fontSize=16;" vertex="1" parent="zV5-nlUjaIhCNrpp0IqO-122">
          <mxGeometry width="77" height="67" as="geometry">
            <mxRectangle width="77" height="67" as="alternateBounds" />
          </mxGeometry>
        </mxCell>
        <mxCell id="zV5-nlUjaIhCNrpp0IqO-124" style="shape=partialRectangle;html=1;whiteSpace=wrap;connectable=0;strokeColor=inherit;overflow=hidden;fillColor=none;top=0;left=0;bottom=0;right=0;pointerEvents=1;fontSize=16;" vertex="1" parent="zV5-nlUjaIhCNrpp0IqO-122">
          <mxGeometry x="77" width="77" height="67" as="geometry">
            <mxRectangle width="77" height="67" as="alternateBounds" />
          </mxGeometry>
        </mxCell>
        <mxCell id="zV5-nlUjaIhCNrpp0IqO-125" style="shape=partialRectangle;html=1;whiteSpace=wrap;connectable=0;strokeColor=inherit;overflow=hidden;fillColor=none;top=0;left=0;bottom=0;right=0;pointerEvents=1;fontSize=16;" vertex="1" parent="zV5-nlUjaIhCNrpp0IqO-122">
          <mxGeometry x="154" width="77" height="67" as="geometry">
            <mxRectangle width="77" height="67" as="alternateBounds" />
          </mxGeometry>
        </mxCell>
        <mxCell id="zV5-nlUjaIhCNrpp0IqO-126" style="shape=partialRectangle;html=1;whiteSpace=wrap;connectable=0;strokeColor=inherit;overflow=hidden;fillColor=none;top=0;left=0;bottom=0;right=0;pointerEvents=1;fontSize=16;" vertex="1" parent="zV5-nlUjaIhCNrpp0IqO-122">
          <mxGeometry x="231" width="77" height="67" as="geometry">
            <mxRectangle width="77" height="67" as="alternateBounds" />
          </mxGeometry>
        </mxCell>
        <mxCell id="zV5-nlUjaIhCNrpp0IqO-127" style="shape=partialRectangle;html=1;whiteSpace=wrap;connectable=0;strokeColor=inherit;overflow=hidden;fillColor=none;top=0;left=0;bottom=0;right=0;pointerEvents=1;fontSize=16;" vertex="1" parent="zV5-nlUjaIhCNrpp0IqO-122">
          <mxGeometry x="308" width="77" height="67" as="geometry">
            <mxRectangle width="77" height="67" as="alternateBounds" />
          </mxGeometry>
        </mxCell>
        <mxCell id="zV5-nlUjaIhCNrpp0IqO-128" style="shape=partialRectangle;html=1;whiteSpace=wrap;connectable=0;strokeColor=inherit;overflow=hidden;fillColor=none;top=0;left=0;bottom=0;right=0;pointerEvents=1;fontSize=16;" vertex="1" parent="zV5-nlUjaIhCNrpp0IqO-122">
          <mxGeometry x="385" width="77" height="67" as="geometry">
            <mxRectangle width="77" height="67" as="alternateBounds" />
          </mxGeometry>
        </mxCell>
        <mxCell id="zV5-nlUjaIhCNrpp0IqO-129" style="shape=partialRectangle;html=1;whiteSpace=wrap;connectable=0;strokeColor=inherit;overflow=hidden;fillColor=none;top=0;left=0;bottom=0;right=0;pointerEvents=1;fontSize=16;" vertex="1" parent="zV5-nlUjaIhCNrpp0IqO-122">
          <mxGeometry x="462" width="77" height="67" as="geometry">
            <mxRectangle width="77" height="67" as="alternateBounds" />
          </mxGeometry>
        </mxCell>
        <mxCell id="zV5-nlUjaIhCNrpp0IqO-130" style="shape=partialRectangle;html=1;whiteSpace=wrap;connectable=0;strokeColor=inherit;overflow=hidden;fillColor=none;top=0;left=0;bottom=0;right=0;pointerEvents=1;fontSize=16;" vertex="1" parent="zV5-nlUjaIhCNrpp0IqO-122">
          <mxGeometry x="539" width="77" height="67" as="geometry">
            <mxRectangle width="77" height="67" as="alternateBounds" />
          </mxGeometry>
        </mxCell>
        <mxCell id="zV5-nlUjaIhCNrpp0IqO-131" style="shape=partialRectangle;html=1;whiteSpace=wrap;connectable=0;strokeColor=inherit;overflow=hidden;fillColor=none;top=0;left=0;bottom=0;right=0;pointerEvents=1;fontSize=16;" vertex="1" parent="zV5-nlUjaIhCNrpp0IqO-122">
          <mxGeometry x="616" width="77" height="67" as="geometry">
            <mxRectangle width="77" height="67" as="alternateBounds" />
          </mxGeometry>
        </mxCell>
        <mxCell id="zV5-nlUjaIhCNrpp0IqO-132" style="shape=partialRectangle;html=1;whiteSpace=wrap;connectable=0;strokeColor=inherit;overflow=hidden;fillColor=none;top=0;left=0;bottom=0;right=0;pointerEvents=1;fontSize=16;" vertex="1" parent="zV5-nlUjaIhCNrpp0IqO-122">
          <mxGeometry x="693" width="77" height="67" as="geometry">
            <mxRectangle width="77" height="67" as="alternateBounds" />
          </mxGeometry>
        </mxCell>
        <mxCell id="zV5-nlUjaIhCNrpp0IqO-133" style="shape=partialRectangle;html=1;whiteSpace=wrap;connectable=0;strokeColor=inherit;overflow=hidden;fillColor=none;top=0;left=0;bottom=0;right=0;pointerEvents=1;fontSize=16;" vertex="1" parent="zV5-nlUjaIhCNrpp0IqO-122">
          <mxGeometry x="770" width="77" height="67" as="geometry">
            <mxRectangle width="77" height="67" as="alternateBounds" />
          </mxGeometry>
        </mxCell>
        <mxCell id="zV5-nlUjaIhCNrpp0IqO-134" style="shape=partialRectangle;html=1;whiteSpace=wrap;connectable=0;strokeColor=inherit;overflow=hidden;fillColor=none;top=0;left=0;bottom=0;right=0;pointerEvents=1;fontSize=16;" vertex="1" parent="zV5-nlUjaIhCNrpp0IqO-122">
          <mxGeometry x="847" width="77" height="67" as="geometry">
            <mxRectangle width="77" height="67" as="alternateBounds" />
          </mxGeometry>
        </mxCell>
        <mxCell id="zV5-nlUjaIhCNrpp0IqO-135" style="shape=partialRectangle;html=1;whiteSpace=wrap;connectable=0;strokeColor=inherit;overflow=hidden;fillColor=none;top=0;left=0;bottom=0;right=0;pointerEvents=1;fontSize=16;" vertex="1" parent="zV5-nlUjaIhCNrpp0IqO-122">
          <mxGeometry x="924" width="76" height="67" as="geometry">
            <mxRectangle width="76" height="67" as="alternateBounds" />
          </mxGeometry>
        </mxCell>
        <mxCell id="zV5-nlUjaIhCNrpp0IqO-136" style="shape=partialRectangle;html=1;whiteSpace=wrap;connectable=0;strokeColor=inherit;overflow=hidden;fillColor=none;top=0;left=0;bottom=0;right=0;pointerEvents=1;fontSize=16;" vertex="1" parent="zV5-nlUjaIhCNrpp0IqO-122">
          <mxGeometry x="1000" width="77" height="67" as="geometry">
            <mxRectangle width="77" height="67" as="alternateBounds" />
          </mxGeometry>
        </mxCell>
        <mxCell id="zV5-nlUjaIhCNrpp0IqO-107" style="shape=tableRow;horizontal=0;startSize=0;swimlaneHead=0;swimlaneBody=0;strokeColor=inherit;top=0;left=0;bottom=0;right=0;collapsible=0;dropTarget=0;fillColor=none;points=[[0,0.5],[1,0.5]];portConstraint=eastwest;fontSize=16;" vertex="1" parent="zV5-nlUjaIhCNrpp0IqO-1">
          <mxGeometry y="737" width="1077" height="67" as="geometry" />
        </mxCell>
        <mxCell id="zV5-nlUjaIhCNrpp0IqO-108" style="shape=partialRectangle;html=1;whiteSpace=wrap;connectable=0;strokeColor=inherit;overflow=hidden;fillColor=none;top=0;left=0;bottom=0;right=0;pointerEvents=1;fontSize=16;" vertex="1" parent="zV5-nlUjaIhCNrpp0IqO-107">
          <mxGeometry width="77" height="67" as="geometry">
            <mxRectangle width="77" height="67" as="alternateBounds" />
          </mxGeometry>
        </mxCell>
        <mxCell id="zV5-nlUjaIhCNrpp0IqO-109" style="shape=partialRectangle;html=1;whiteSpace=wrap;connectable=0;strokeColor=inherit;overflow=hidden;fillColor=none;top=0;left=0;bottom=0;right=0;pointerEvents=1;fontSize=16;" vertex="1" parent="zV5-nlUjaIhCNrpp0IqO-107">
          <mxGeometry x="77" width="77" height="67" as="geometry">
            <mxRectangle width="77" height="67" as="alternateBounds" />
          </mxGeometry>
        </mxCell>
        <mxCell id="zV5-nlUjaIhCNrpp0IqO-110" style="shape=partialRectangle;html=1;whiteSpace=wrap;connectable=0;strokeColor=inherit;overflow=hidden;fillColor=none;top=0;left=0;bottom=0;right=0;pointerEvents=1;fontSize=16;" vertex="1" parent="zV5-nlUjaIhCNrpp0IqO-107">
          <mxGeometry x="154" width="77" height="67" as="geometry">
            <mxRectangle width="77" height="67" as="alternateBounds" />
          </mxGeometry>
        </mxCell>
        <mxCell id="zV5-nlUjaIhCNrpp0IqO-111" style="shape=partialRectangle;html=1;whiteSpace=wrap;connectable=0;strokeColor=inherit;overflow=hidden;fillColor=none;top=0;left=0;bottom=0;right=0;pointerEvents=1;fontSize=16;" vertex="1" parent="zV5-nlUjaIhCNrpp0IqO-107">
          <mxGeometry x="231" width="77" height="67" as="geometry">
            <mxRectangle width="77" height="67" as="alternateBounds" />
          </mxGeometry>
        </mxCell>
        <mxCell id="zV5-nlUjaIhCNrpp0IqO-112" style="shape=partialRectangle;html=1;whiteSpace=wrap;connectable=0;strokeColor=inherit;overflow=hidden;fillColor=none;top=0;left=0;bottom=0;right=0;pointerEvents=1;fontSize=16;" vertex="1" parent="zV5-nlUjaIhCNrpp0IqO-107">
          <mxGeometry x="308" width="77" height="67" as="geometry">
            <mxRectangle width="77" height="67" as="alternateBounds" />
          </mxGeometry>
        </mxCell>
        <mxCell id="zV5-nlUjaIhCNrpp0IqO-113" style="shape=partialRectangle;html=1;whiteSpace=wrap;connectable=0;strokeColor=inherit;overflow=hidden;fillColor=none;top=0;left=0;bottom=0;right=0;pointerEvents=1;fontSize=16;" vertex="1" parent="zV5-nlUjaIhCNrpp0IqO-107">
          <mxGeometry x="385" width="77" height="67" as="geometry">
            <mxRectangle width="77" height="67" as="alternateBounds" />
          </mxGeometry>
        </mxCell>
        <mxCell id="zV5-nlUjaIhCNrpp0IqO-114" style="shape=partialRectangle;html=1;whiteSpace=wrap;connectable=0;strokeColor=inherit;overflow=hidden;fillColor=none;top=0;left=0;bottom=0;right=0;pointerEvents=1;fontSize=16;" vertex="1" parent="zV5-nlUjaIhCNrpp0IqO-107">
          <mxGeometry x="462" width="77" height="67" as="geometry">
            <mxRectangle width="77" height="67" as="alternateBounds" />
          </mxGeometry>
        </mxCell>
        <mxCell id="zV5-nlUjaIhCNrpp0IqO-115" style="shape=partialRectangle;html=1;whiteSpace=wrap;connectable=0;strokeColor=inherit;overflow=hidden;fillColor=none;top=0;left=0;bottom=0;right=0;pointerEvents=1;fontSize=16;" vertex="1" parent="zV5-nlUjaIhCNrpp0IqO-107">
          <mxGeometry x="539" width="77" height="67" as="geometry">
            <mxRectangle width="77" height="67" as="alternateBounds" />
          </mxGeometry>
        </mxCell>
        <mxCell id="zV5-nlUjaIhCNrpp0IqO-116" style="shape=partialRectangle;html=1;whiteSpace=wrap;connectable=0;strokeColor=inherit;overflow=hidden;fillColor=none;top=0;left=0;bottom=0;right=0;pointerEvents=1;fontSize=16;" vertex="1" parent="zV5-nlUjaIhCNrpp0IqO-107">
          <mxGeometry x="616" width="77" height="67" as="geometry">
            <mxRectangle width="77" height="67" as="alternateBounds" />
          </mxGeometry>
        </mxCell>
        <mxCell id="zV5-nlUjaIhCNrpp0IqO-117" style="shape=partialRectangle;html=1;whiteSpace=wrap;connectable=0;strokeColor=inherit;overflow=hidden;fillColor=none;top=0;left=0;bottom=0;right=0;pointerEvents=1;fontSize=16;" vertex="1" parent="zV5-nlUjaIhCNrpp0IqO-107">
          <mxGeometry x="693" width="77" height="67" as="geometry">
            <mxRectangle width="77" height="67" as="alternateBounds" />
          </mxGeometry>
        </mxCell>
        <mxCell id="zV5-nlUjaIhCNrpp0IqO-118" style="shape=partialRectangle;html=1;whiteSpace=wrap;connectable=0;strokeColor=inherit;overflow=hidden;fillColor=none;top=0;left=0;bottom=0;right=0;pointerEvents=1;fontSize=16;" vertex="1" parent="zV5-nlUjaIhCNrpp0IqO-107">
          <mxGeometry x="770" width="77" height="67" as="geometry">
            <mxRectangle width="77" height="67" as="alternateBounds" />
          </mxGeometry>
        </mxCell>
        <mxCell id="zV5-nlUjaIhCNrpp0IqO-119" style="shape=partialRectangle;html=1;whiteSpace=wrap;connectable=0;strokeColor=inherit;overflow=hidden;fillColor=none;top=0;left=0;bottom=0;right=0;pointerEvents=1;fontSize=16;" vertex="1" parent="zV5-nlUjaIhCNrpp0IqO-107">
          <mxGeometry x="847" width="77" height="67" as="geometry">
            <mxRectangle width="77" height="67" as="alternateBounds" />
          </mxGeometry>
        </mxCell>
        <mxCell id="zV5-nlUjaIhCNrpp0IqO-120" style="shape=partialRectangle;html=1;whiteSpace=wrap;connectable=0;strokeColor=inherit;overflow=hidden;fillColor=none;top=0;left=0;bottom=0;right=0;pointerEvents=1;fontSize=16;" vertex="1" parent="zV5-nlUjaIhCNrpp0IqO-107">
          <mxGeometry x="924" width="76" height="67" as="geometry">
            <mxRectangle width="76" height="67" as="alternateBounds" />
          </mxGeometry>
        </mxCell>
        <mxCell id="zV5-nlUjaIhCNrpp0IqO-121" style="shape=partialRectangle;html=1;whiteSpace=wrap;connectable=0;strokeColor=inherit;overflow=hidden;fillColor=none;top=0;left=0;bottom=0;right=0;pointerEvents=1;fontSize=16;" vertex="1" parent="zV5-nlUjaIhCNrpp0IqO-107">
          <mxGeometry x="1000" width="77" height="67" as="geometry">
            <mxRectangle width="77" height="67" as="alternateBounds" />
          </mxGeometry>
        </mxCell>
        <mxCell id="zV5-nlUjaIhCNrpp0IqO-6" value="" style="shape=tableRow;horizontal=0;startSize=0;swimlaneHead=0;swimlaneBody=0;strokeColor=inherit;top=0;left=0;bottom=0;right=0;collapsible=0;dropTarget=0;fillColor=none;points=[[0,0.5],[1,0.5]];portConstraint=eastwest;fontSize=16;" vertex="1" parent="zV5-nlUjaIhCNrpp0IqO-1">
          <mxGeometry y="804" width="1077" height="66" as="geometry" />
        </mxCell>
        <mxCell id="zV5-nlUjaIhCNrpp0IqO-45" style="shape=partialRectangle;html=1;whiteSpace=wrap;connectable=0;strokeColor=inherit;overflow=hidden;fillColor=none;top=0;left=0;bottom=0;right=0;pointerEvents=1;fontSize=16;" vertex="1" parent="zV5-nlUjaIhCNrpp0IqO-6">
          <mxGeometry width="77" height="66" as="geometry">
            <mxRectangle width="77" height="66" as="alternateBounds" />
          </mxGeometry>
        </mxCell>
        <mxCell id="zV5-nlUjaIhCNrpp0IqO-42" style="shape=partialRectangle;html=1;whiteSpace=wrap;connectable=0;strokeColor=inherit;overflow=hidden;fillColor=none;top=0;left=0;bottom=0;right=0;pointerEvents=1;fontSize=16;" vertex="1" parent="zV5-nlUjaIhCNrpp0IqO-6">
          <mxGeometry x="77" width="77" height="66" as="geometry">
            <mxRectangle width="77" height="66" as="alternateBounds" />
          </mxGeometry>
        </mxCell>
        <mxCell id="zV5-nlUjaIhCNrpp0IqO-39" style="shape=partialRectangle;html=1;whiteSpace=wrap;connectable=0;strokeColor=inherit;overflow=hidden;fillColor=none;top=0;left=0;bottom=0;right=0;pointerEvents=1;fontSize=16;" vertex="1" parent="zV5-nlUjaIhCNrpp0IqO-6">
          <mxGeometry x="154" width="77" height="66" as="geometry">
            <mxRectangle width="77" height="66" as="alternateBounds" />
          </mxGeometry>
        </mxCell>
        <mxCell id="zV5-nlUjaIhCNrpp0IqO-36" style="shape=partialRectangle;html=1;whiteSpace=wrap;connectable=0;strokeColor=inherit;overflow=hidden;fillColor=none;top=0;left=0;bottom=0;right=0;pointerEvents=1;fontSize=16;" vertex="1" parent="zV5-nlUjaIhCNrpp0IqO-6">
          <mxGeometry x="231" width="77" height="66" as="geometry">
            <mxRectangle width="77" height="66" as="alternateBounds" />
          </mxGeometry>
        </mxCell>
        <mxCell id="zV5-nlUjaIhCNrpp0IqO-33" style="shape=partialRectangle;html=1;whiteSpace=wrap;connectable=0;strokeColor=inherit;overflow=hidden;fillColor=none;top=0;left=0;bottom=0;right=0;pointerEvents=1;fontSize=16;" vertex="1" parent="zV5-nlUjaIhCNrpp0IqO-6">
          <mxGeometry x="308" width="77" height="66" as="geometry">
            <mxRectangle width="77" height="66" as="alternateBounds" />
          </mxGeometry>
        </mxCell>
        <mxCell id="zV5-nlUjaIhCNrpp0IqO-30" style="shape=partialRectangle;html=1;whiteSpace=wrap;connectable=0;strokeColor=inherit;overflow=hidden;fillColor=none;top=0;left=0;bottom=0;right=0;pointerEvents=1;fontSize=16;" vertex="1" parent="zV5-nlUjaIhCNrpp0IqO-6">
          <mxGeometry x="385" width="77" height="66" as="geometry">
            <mxRectangle width="77" height="66" as="alternateBounds" />
          </mxGeometry>
        </mxCell>
        <mxCell id="zV5-nlUjaIhCNrpp0IqO-27" style="shape=partialRectangle;html=1;whiteSpace=wrap;connectable=0;strokeColor=inherit;overflow=hidden;fillColor=none;top=0;left=0;bottom=0;right=0;pointerEvents=1;fontSize=16;" vertex="1" parent="zV5-nlUjaIhCNrpp0IqO-6">
          <mxGeometry x="462" width="77" height="66" as="geometry">
            <mxRectangle width="77" height="66" as="alternateBounds" />
          </mxGeometry>
        </mxCell>
        <mxCell id="zV5-nlUjaIhCNrpp0IqO-24" style="shape=partialRectangle;html=1;whiteSpace=wrap;connectable=0;strokeColor=inherit;overflow=hidden;fillColor=none;top=0;left=0;bottom=0;right=0;pointerEvents=1;fontSize=16;" vertex="1" parent="zV5-nlUjaIhCNrpp0IqO-6">
          <mxGeometry x="539" width="77" height="66" as="geometry">
            <mxRectangle width="77" height="66" as="alternateBounds" />
          </mxGeometry>
        </mxCell>
        <mxCell id="zV5-nlUjaIhCNrpp0IqO-21" style="shape=partialRectangle;html=1;whiteSpace=wrap;connectable=0;strokeColor=inherit;overflow=hidden;fillColor=none;top=0;left=0;bottom=0;right=0;pointerEvents=1;fontSize=16;" vertex="1" parent="zV5-nlUjaIhCNrpp0IqO-6">
          <mxGeometry x="616" width="77" height="66" as="geometry">
            <mxRectangle width="77" height="66" as="alternateBounds" />
          </mxGeometry>
        </mxCell>
        <mxCell id="zV5-nlUjaIhCNrpp0IqO-18" style="shape=partialRectangle;html=1;whiteSpace=wrap;connectable=0;strokeColor=inherit;overflow=hidden;fillColor=none;top=0;left=0;bottom=0;right=0;pointerEvents=1;fontSize=16;" vertex="1" parent="zV5-nlUjaIhCNrpp0IqO-6">
          <mxGeometry x="693" width="77" height="66" as="geometry">
            <mxRectangle width="77" height="66" as="alternateBounds" />
          </mxGeometry>
        </mxCell>
        <mxCell id="zV5-nlUjaIhCNrpp0IqO-15" style="shape=partialRectangle;html=1;whiteSpace=wrap;connectable=0;strokeColor=inherit;overflow=hidden;fillColor=none;top=0;left=0;bottom=0;right=0;pointerEvents=1;fontSize=16;" vertex="1" parent="zV5-nlUjaIhCNrpp0IqO-6">
          <mxGeometry x="770" width="77" height="66" as="geometry">
            <mxRectangle width="77" height="66" as="alternateBounds" />
          </mxGeometry>
        </mxCell>
        <mxCell id="zV5-nlUjaIhCNrpp0IqO-7" value="" style="shape=partialRectangle;html=1;whiteSpace=wrap;connectable=0;strokeColor=inherit;overflow=hidden;fillColor=none;top=0;left=0;bottom=0;right=0;pointerEvents=1;fontSize=16;" vertex="1" parent="zV5-nlUjaIhCNrpp0IqO-6">
          <mxGeometry x="847" width="77" height="66" as="geometry">
            <mxRectangle width="77" height="66" as="alternateBounds" />
          </mxGeometry>
        </mxCell>
        <mxCell id="zV5-nlUjaIhCNrpp0IqO-8" value="" style="shape=partialRectangle;html=1;whiteSpace=wrap;connectable=0;strokeColor=inherit;overflow=hidden;fillColor=none;top=0;left=0;bottom=0;right=0;pointerEvents=1;fontSize=16;" vertex="1" parent="zV5-nlUjaIhCNrpp0IqO-6">
          <mxGeometry x="924" width="76" height="66" as="geometry">
            <mxRectangle width="76" height="66" as="alternateBounds" />
          </mxGeometry>
        </mxCell>
        <mxCell id="zV5-nlUjaIhCNrpp0IqO-9" value="" style="shape=partialRectangle;html=1;whiteSpace=wrap;connectable=0;strokeColor=inherit;overflow=hidden;fillColor=none;top=0;left=0;bottom=0;right=0;pointerEvents=1;fontSize=16;" vertex="1" parent="zV5-nlUjaIhCNrpp0IqO-6">
          <mxGeometry x="1000" width="77" height="66" as="geometry">
            <mxRectangle width="77" height="66" as="alternateBounds" />
          </mxGeometry>
        </mxCell>
        <mxCell id="zV5-nlUjaIhCNrpp0IqO-10" value="" style="shape=tableRow;horizontal=0;startSize=0;swimlaneHead=0;swimlaneBody=0;strokeColor=inherit;top=0;left=0;bottom=0;right=0;collapsible=0;dropTarget=0;fillColor=none;points=[[0,0.5],[1,0.5]];portConstraint=eastwest;fontSize=16;" vertex="1" parent="zV5-nlUjaIhCNrpp0IqO-1">
          <mxGeometry y="870" width="1077" height="67" as="geometry" />
        </mxCell>
        <mxCell id="zV5-nlUjaIhCNrpp0IqO-46" style="shape=partialRectangle;html=1;whiteSpace=wrap;connectable=0;strokeColor=inherit;overflow=hidden;fillColor=none;top=0;left=0;bottom=0;right=0;pointerEvents=1;fontSize=16;" vertex="1" parent="zV5-nlUjaIhCNrpp0IqO-10">
          <mxGeometry width="77" height="67" as="geometry">
            <mxRectangle width="77" height="67" as="alternateBounds" />
          </mxGeometry>
        </mxCell>
        <mxCell id="zV5-nlUjaIhCNrpp0IqO-43" style="shape=partialRectangle;html=1;whiteSpace=wrap;connectable=0;strokeColor=inherit;overflow=hidden;fillColor=none;top=0;left=0;bottom=0;right=0;pointerEvents=1;fontSize=16;" vertex="1" parent="zV5-nlUjaIhCNrpp0IqO-10">
          <mxGeometry x="77" width="77" height="67" as="geometry">
            <mxRectangle width="77" height="67" as="alternateBounds" />
          </mxGeometry>
        </mxCell>
        <mxCell id="zV5-nlUjaIhCNrpp0IqO-40" style="shape=partialRectangle;html=1;whiteSpace=wrap;connectable=0;strokeColor=inherit;overflow=hidden;fillColor=none;top=0;left=0;bottom=0;right=0;pointerEvents=1;fontSize=16;" vertex="1" parent="zV5-nlUjaIhCNrpp0IqO-10">
          <mxGeometry x="154" width="77" height="67" as="geometry">
            <mxRectangle width="77" height="67" as="alternateBounds" />
          </mxGeometry>
        </mxCell>
        <mxCell id="zV5-nlUjaIhCNrpp0IqO-37" style="shape=partialRectangle;html=1;whiteSpace=wrap;connectable=0;strokeColor=inherit;overflow=hidden;fillColor=none;top=0;left=0;bottom=0;right=0;pointerEvents=1;fontSize=16;" vertex="1" parent="zV5-nlUjaIhCNrpp0IqO-10">
          <mxGeometry x="231" width="77" height="67" as="geometry">
            <mxRectangle width="77" height="67" as="alternateBounds" />
          </mxGeometry>
        </mxCell>
        <mxCell id="zV5-nlUjaIhCNrpp0IqO-34" style="shape=partialRectangle;html=1;whiteSpace=wrap;connectable=0;strokeColor=inherit;overflow=hidden;fillColor=none;top=0;left=0;bottom=0;right=0;pointerEvents=1;fontSize=16;" vertex="1" parent="zV5-nlUjaIhCNrpp0IqO-10">
          <mxGeometry x="308" width="77" height="67" as="geometry">
            <mxRectangle width="77" height="67" as="alternateBounds" />
          </mxGeometry>
        </mxCell>
        <mxCell id="zV5-nlUjaIhCNrpp0IqO-31" style="shape=partialRectangle;html=1;whiteSpace=wrap;connectable=0;strokeColor=inherit;overflow=hidden;fillColor=none;top=0;left=0;bottom=0;right=0;pointerEvents=1;fontSize=16;" vertex="1" parent="zV5-nlUjaIhCNrpp0IqO-10">
          <mxGeometry x="385" width="77" height="67" as="geometry">
            <mxRectangle width="77" height="67" as="alternateBounds" />
          </mxGeometry>
        </mxCell>
        <mxCell id="zV5-nlUjaIhCNrpp0IqO-28" style="shape=partialRectangle;html=1;whiteSpace=wrap;connectable=0;strokeColor=inherit;overflow=hidden;fillColor=none;top=0;left=0;bottom=0;right=0;pointerEvents=1;fontSize=16;" vertex="1" parent="zV5-nlUjaIhCNrpp0IqO-10">
          <mxGeometry x="462" width="77" height="67" as="geometry">
            <mxRectangle width="77" height="67" as="alternateBounds" />
          </mxGeometry>
        </mxCell>
        <mxCell id="zV5-nlUjaIhCNrpp0IqO-25" style="shape=partialRectangle;html=1;whiteSpace=wrap;connectable=0;strokeColor=inherit;overflow=hidden;fillColor=none;top=0;left=0;bottom=0;right=0;pointerEvents=1;fontSize=16;" vertex="1" parent="zV5-nlUjaIhCNrpp0IqO-10">
          <mxGeometry x="539" width="77" height="67" as="geometry">
            <mxRectangle width="77" height="67" as="alternateBounds" />
          </mxGeometry>
        </mxCell>
        <mxCell id="zV5-nlUjaIhCNrpp0IqO-22" style="shape=partialRectangle;html=1;whiteSpace=wrap;connectable=0;strokeColor=inherit;overflow=hidden;fillColor=none;top=0;left=0;bottom=0;right=0;pointerEvents=1;fontSize=16;" vertex="1" parent="zV5-nlUjaIhCNrpp0IqO-10">
          <mxGeometry x="616" width="77" height="67" as="geometry">
            <mxRectangle width="77" height="67" as="alternateBounds" />
          </mxGeometry>
        </mxCell>
        <mxCell id="zV5-nlUjaIhCNrpp0IqO-19" style="shape=partialRectangle;html=1;whiteSpace=wrap;connectable=0;strokeColor=inherit;overflow=hidden;fillColor=none;top=0;left=0;bottom=0;right=0;pointerEvents=1;fontSize=16;" vertex="1" parent="zV5-nlUjaIhCNrpp0IqO-10">
          <mxGeometry x="693" width="77" height="67" as="geometry">
            <mxRectangle width="77" height="67" as="alternateBounds" />
          </mxGeometry>
        </mxCell>
        <mxCell id="zV5-nlUjaIhCNrpp0IqO-16" style="shape=partialRectangle;html=1;whiteSpace=wrap;connectable=0;strokeColor=inherit;overflow=hidden;fillColor=none;top=0;left=0;bottom=0;right=0;pointerEvents=1;fontSize=16;" vertex="1" parent="zV5-nlUjaIhCNrpp0IqO-10">
          <mxGeometry x="770" width="77" height="67" as="geometry">
            <mxRectangle width="77" height="67" as="alternateBounds" />
          </mxGeometry>
        </mxCell>
        <mxCell id="zV5-nlUjaIhCNrpp0IqO-11" value="" style="shape=partialRectangle;html=1;whiteSpace=wrap;connectable=0;strokeColor=inherit;overflow=hidden;fillColor=none;top=0;left=0;bottom=0;right=0;pointerEvents=1;fontSize=16;" vertex="1" parent="zV5-nlUjaIhCNrpp0IqO-10">
          <mxGeometry x="847" width="77" height="67" as="geometry">
            <mxRectangle width="77" height="67" as="alternateBounds" />
          </mxGeometry>
        </mxCell>
        <mxCell id="zV5-nlUjaIhCNrpp0IqO-12" value="" style="shape=partialRectangle;html=1;whiteSpace=wrap;connectable=0;strokeColor=inherit;overflow=hidden;fillColor=none;top=0;left=0;bottom=0;right=0;pointerEvents=1;fontSize=16;" vertex="1" parent="zV5-nlUjaIhCNrpp0IqO-10">
          <mxGeometry x="924" width="76" height="67" as="geometry">
            <mxRectangle width="76" height="67" as="alternateBounds" />
          </mxGeometry>
        </mxCell>
        <mxCell id="zV5-nlUjaIhCNrpp0IqO-13" value="" style="shape=partialRectangle;html=1;whiteSpace=wrap;connectable=0;strokeColor=inherit;overflow=hidden;fillColor=none;top=0;left=0;bottom=0;right=0;pointerEvents=1;fontSize=16;" vertex="1" parent="zV5-nlUjaIhCNrpp0IqO-10">
          <mxGeometry x="1000" width="77" height="67" as="geometry">
            <mxRectangle width="77" height="67" as="alternateBounds" />
          </mxGeometry>
        </mxCell>
      </root>
    </mxGraphModel>
  </diagram>
</mxfile>
